<svg width="308" height="219" fill="none" xmlns="http://www.w3.org/2000/svg"><path d="M28 44.16c-1.44-.053-2.16.747-2.16 2.4v2.56c0 1.813.8 2.72 2.4 2.72.64 0 1.44-.08 2.4-.24 1.173-.213 2.16-.32 2.96-.32 1.333 0 2.4.48 3.2 1.44.8.96 1.2 2.24 1.2 3.84 0 1.76-.533 3.173-1.6 4.24-1.067 1.067-2.453 1.6-4.16 1.6-1.493 0-3.707-.133-6.64-.4s-5.147-.4-6.64-.4c-2.293 0-4.213.08-5.76.24l-3.92.4c-1.067.107-1.787.16-2.16.16-1.707 0-3.093-.533-4.16-1.6-1.013-1.067-1.52-2.48-1.52-4.24 0-1.493.4-2.747 1.2-3.76.853-1.013 1.893-1.52 3.12-1.52.48 0 1.147.107 2 .32.853.16 1.467.24 1.84.24 1.44 0 2.16-1.813 2.16-5.44V24.24c0-1.707-.053-2.8-.16-3.28-.267-1.387-.933-2.08-2-2.08-.427 0-1.067.107-1.92.32-.8.16-1.44.24-1.92.24-1.227 0-2.267-.507-3.12-1.52-.8-1.013-1.2-2.267-1.2-3.76 0-1.76.533-3.173 1.6-4.24C4.107 8.8 5.493 8.24 7.2 8.24h.24a.71.71 0 0 0 .32.08c1.28 0 3.227.133 5.84.4s4.587.4 5.92.4c2.56 0 5.36-.107 8.4-.32 3.84-.267 6.027-.4 6.56-.4 5.813 0 10.507 1.653 14.08 4.96C52.187 16.613 54 20.907 54 26.24c0 5.547-1.867 9.947-5.6 13.2-3.68 3.253-8.72 4.88-15.12 4.88-.533 0-1.547-.027-3.04-.08L28 44.16Zm-2.16-13.52c0 1.493.133 2.427.4 2.8.267.32.987.507 2.16.56l1.28.08c6.293.373 9.44-2.107 9.44-7.44 0-5.12-2.827-7.68-8.48-7.68-1.387 0-2.347.08-2.88.24-.96.267-1.547.907-1.76 1.92-.107.533-.16 1.333-.16 2.4v7.12Zm48.83-8.88c1.494 0 2.24 1.04 2.24 3.12v24.08c0 2.72.507 4.08 1.52 4.08.214 0 .587-.053 1.12-.16.587-.16 1.067-.24 1.44-.24 2.24 0 3.36 1.387 3.36 4.16 0 3.68-1.573 5.52-4.72 5.52-.533 0-2.026-.133-4.48-.4-1.493-.16-3.2-.24-5.12-.24-.96 0-2.373.107-4.24.32-1.866.213-3.253.32-4.16.32-1.44 0-2.613-.48-3.52-1.44-.906-1.013-1.36-2.293-1.36-3.84 0-3.04 1.28-4.56 3.84-4.56l2.08.48c.214.053.4.08.56.08.96 0 1.44-1.493 1.44-4.48V35.6c0-3.04-.453-4.56-1.36-4.56-.16 0-.64.133-1.44.4-.533.107-.96.16-1.28.16-2.56 0-3.84-1.493-3.84-4.48 0-1.6.454-2.88 1.36-3.84.907-1.013 2.107-1.52 3.6-1.52.587 0 1.44.08 2.56.24 1.867.267 3.36.4 4.48.4.907 0 2.08-.107 3.52-.32 1.44-.213 2.24-.32 2.4-.32Zm-4.56-3.04c-1.973 0-3.68-.72-5.12-2.16-1.44-1.44-2.16-3.147-2.16-5.12 0-2.027.694-3.733 2.08-5.12 1.44-1.44 3.174-2.16 5.2-2.16 2.027 0 3.734.72 5.12 2.16 1.44 1.387 2.16 3.093 2.16 5.12s-.72 3.76-2.16 5.2c-1.386 1.387-3.093 2.08-5.12 2.08Zm55.621 19.84c0 2.24-.293 3.733-.88 4.48-.533.747-1.626 1.12-3.28 1.12h-19.52c-.96 0-1.573.107-1.84.32-.213.16-.32.613-.32 1.36 0 2.24.72 4.107 2.16 5.6 1.44 1.493 3.254 2.24 5.44 2.24 2.24 0 4.534-1.227 6.88-3.68 1.6-1.707 3.36-2.56 5.28-2.56 1.6 0 2.88.453 3.84 1.36 1.014.907 1.52 2.053 1.52 3.44 0 3.093-1.706 5.733-5.12 7.92-3.36 2.133-7.466 3.2-12.32 3.2-6.346 0-11.413-1.92-15.2-5.76-3.786-3.84-5.68-8.96-5.68-15.36 0-6.453 1.867-11.653 5.6-15.6 3.787-4 8.72-6 14.8-6 5.654 0 10.16 1.627 13.52 4.88 3.414 3.253 5.12 7.6 5.12 13.04Zm-25.44-4c0 .32.08.587.24.8.16.213.72.32 1.68.32h8.96c.8 0 1.28-.08 1.44-.24.214-.213.32-.56.32-1.04 0-1.387-.613-2.587-1.84-3.6-1.226-1.067-2.666-1.6-4.32-1.6-2.133 0-3.866.827-5.2 2.48-.853 1.067-1.28 2.027-1.28 2.88Zm47.032-13.36c4.053 0 7.787 1.573 11.2 4.72v-5.76c0-1.92-.667-2.88-2-2.88-.32 0-.96.053-1.92.16a7.041 7.041 0 0 1-2.08.32c-1.013 0-1.867-.427-2.56-1.28-.693-.853-1.04-1.92-1.04-3.2 0-3.413 1.813-5.12 5.44-5.12 1.173 0 2.027.027 2.56.08 2.133.213 3.573.32 4.32.32.693 0 1.707-.053 3.04-.16 1.333-.107 2.32-.16 2.96-.16 1.333 0 2.24.32 2.72.96.533.587.8 1.707.8 3.36v36.4c0 2.72.507 4.08 1.52 4.08.32 0 .72-.08 1.2-.24.32-.107.747-.16 1.28-.16 2.293 0 3.44 1.36 3.44 4.08 0 1.653-.4 3.013-1.2 4.08-.8 1.013-1.867 1.52-3.2 1.52h-.48l-2.8-.48c-.64-.107-1.547-.16-2.72-.16-1.387 0-2.533.053-3.44.16-1.333.16-2.053.24-2.16.24-1.653 0-2.48-.96-2.48-2.88v-2.96c-2.773 4.747-6.933 7.12-12.48 7.12-4.907 0-8.96-2-12.16-6-3.147-4.053-4.72-9.147-4.72-15.28 0-6.24 1.547-11.28 4.64-15.12 3.147-3.84 7.253-5.76 12.32-5.76Zm2.8 10.08c-1.973 0-3.6.933-4.88 2.8-1.227 1.867-1.92 4.4-2.08 7.6v1.04c0 3.253.613 5.813 1.84 7.68 1.28 1.867 2.987 2.8 5.12 2.8 2.347 0 4.24-1.013 5.68-3.04 1.493-2.027 2.24-4.72 2.24-8.08 0-3.253-.72-5.867-2.16-7.84-1.44-1.973-3.36-2.96-5.76-2.96Zm47.738-7.04v6.8c.746-2.72 1.626-4.72 2.64-6 2.346-2.933 5.626-4.4 9.84-4.4 2.933 0 5.386.96 7.36 2.88 2.026 1.867 3.04 4.187 3.04 6.96 0 2.187-.64 4-1.92 5.44-1.28 1.387-2.907 2.08-4.88 2.08-1.494 0-2.774-.48-3.84-1.44-1.014-.96-1.52-2.133-1.52-3.52 0-.747.346-1.787 1.04-3.12h-.48c-3.574 0-5.974 1.893-7.2 5.68-.96 3.04-1.44 6.533-1.44 10.48v3.04c0 1.92.16 3.147.48 3.68.213.32.586.48 1.12.48.48 0 1.146-.107 2-.32.853-.213 1.493-.32 1.92-.32 1.173 0 2.16.427 2.96 1.28.853.8 1.28 1.787 1.28 2.96 0 1.547-.534 2.853-1.6 3.92-1.014 1.013-2.267 1.52-3.76 1.52-.8 0-2.294-.133-4.48-.4-1.334-.16-3.014-.24-5.04-.24-2.027 0-3.814.08-5.36.24-2.56.267-4.134.4-4.72.4-3.307 0-4.96-1.787-4.96-5.36 0-2.987 1.28-4.48 3.84-4.48.426 0 .906.107 1.44.32.533.16.933.24 1.2.24.906 0 1.36-1.493 1.36-4.48V35.6c0-3.04-.454-4.56-1.36-4.56-.214 0-.64.107-1.28.32-.587.16-1.04.24-1.36.24-2.56 0-3.84-1.467-3.84-4.4 0-1.6.426-2.907 1.28-3.92.853-1.013 1.946-1.52 3.28-1.52.533 0 1.28.107 2.24.32.96.213 1.866.32 2.72.32.64 0 1.573-.107 2.8-.32 1.226-.213 2.133-.32 2.72-.32 1.653 0 2.48.827 2.48 2.48Zm60.221 39.12c-4.373 0-7.307-1.76-8.8-5.28-3.733 3.52-8.16 5.28-13.28 5.28-4.213 0-7.573-1.093-10.08-3.28-2.507-2.24-3.76-5.2-3.76-8.88 0-5.6 2.427-9.227 7.28-10.88 2.08-.693 4.48-1.28 7.2-1.76 3.787-.64 6.347-1.36 7.68-2.16 1.387-.853 2.08-2.133 2.08-3.84 0-1.227-.533-2.24-1.6-3.04-1.013-.853-2.293-1.28-3.84-1.28-1.76 0-2.64.56-2.64 1.68 0 .373.027.747.08 1.12v.32c0 1.493-.64 2.747-1.92 3.76-1.227 1.013-2.773 1.52-4.64 1.52-2.133 0-3.893-.64-5.28-1.92-1.387-1.28-2.08-2.88-2.08-4.8 0-2.88 1.52-5.147 4.56-6.8 3.04-1.653 7.227-2.48 12.56-2.48 5.76 0 10.053.88 12.88 2.64 3.04 1.92 4.56 5.493 4.56 10.72v16.56c0 1.707.427 2.56 1.28 2.56.427 0 .827-.027 1.2-.08.16-.053.347-.08.56-.08 1.227 0 2.267.427 3.12 1.28.853.853 1.28 1.893 1.28 3.12 0 1.76-.8 3.2-2.4 4.32-1.547 1.12-3.547 1.68-6 1.68Zm-11.6-17.12v-1.76c-.373.213-2.72.88-7.04 2-2.933.747-4.4 1.893-4.4 3.44 0 2.453 1.44 3.68 4.32 3.68 4.747 0 7.12-2.453 7.12-7.36ZM28 114.16c-1.44-.053-2.16.747-2.16 2.4v2.56c0 1.813.8 2.72 2.4 2.72.64 0 1.44-.08 2.4-.24 1.173-.213 2.16-.32 2.96-.32 1.333 0 2.4.48 3.2 1.44.8.96 1.2 2.24 1.2 3.84 0 1.76-.533 3.173-1.6 4.24-1.067 1.067-2.453 1.6-4.16 1.6-1.493 0-3.707-.133-6.64-.4s-5.147-.4-6.64-.4c-2.293 0-4.213.08-5.76.24l-3.92.4c-1.067.107-1.787.16-2.16.16-1.707 0-3.093-.533-4.16-1.6-1.013-1.067-1.52-2.48-1.52-4.24 0-1.493.4-2.747 1.2-3.76.853-1.013 1.893-1.52 3.12-1.52.48 0 1.147.107 2 .32.853.16 1.467.24 1.84.24 1.44 0 2.16-1.813 2.16-5.44V94.24c0-1.707-.053-2.8-.16-3.28-.267-1.387-.933-2.08-2-2.08-.427 0-1.067.107-1.92.32-.8.16-1.44.24-1.92.24-1.227 0-2.267-.507-3.12-1.52-.8-1.013-1.2-2.267-1.2-3.76 0-1.76.533-3.173 1.6-4.24 1.067-1.12 2.453-1.68 4.16-1.68h.24a.71.71 0 0 0 .32.08c1.28 0 3.227.133 5.84.4s4.587.4 5.92.4c2.56 0 5.36-.107 8.4-.32 3.84-.267 6.027-.4 6.56-.4 5.813 0 10.507 1.653 14.08 4.96C52.187 86.613 54 90.907 54 96.24c0 5.547-1.867 9.947-5.6 13.2-3.68 3.253-8.72 4.88-15.12 4.88-.533 0-1.547-.027-3.04-.08l-2.24-.08Zm-2.16-13.52c0 1.493.133 2.427.4 2.8.267.32.987.507 2.16.56l1.28.08c6.293.373 9.44-2.107 9.44-7.44 0-5.12-2.827-7.68-8.48-7.68-1.387 0-2.347.08-2.88.24-.96.267-1.547.907-1.76 1.92-.107.533-.16 1.333-.16 2.4v7.12Zm66.773 32.72c-4.373 0-7.306-1.76-8.8-5.28-3.733 3.52-8.16 5.28-13.28 5.28-4.213 0-7.573-1.093-10.08-3.28-2.507-2.24-3.76-5.2-3.76-8.88 0-5.6 2.427-9.227 7.28-10.88 2.08-.693 4.48-1.28 7.2-1.76 3.787-.64 6.347-1.36 7.68-2.16 1.387-.853 2.08-2.133 2.08-3.84 0-1.227-.533-2.24-1.6-3.04-1.013-.853-2.293-1.28-3.84-1.28-1.76 0-2.64.56-2.64 1.68 0 .373.027.747.08 1.12v.32c0 1.493-.64 2.747-1.92 3.76-1.227 1.013-2.773 1.52-4.64 1.52-2.133 0-3.893-.64-5.28-1.92-1.387-1.28-2.08-2.88-2.08-4.8 0-2.88 1.52-5.147 4.56-6.8 3.04-1.653 7.227-2.48 12.56-2.48 5.76 0 10.053.88 12.88 2.64 3.04 1.92 4.56 5.493 4.56 10.72v16.56c0 1.707.427 2.56 1.28 2.56.427 0 .827-.027 1.2-.08.16-.053.347-.08.56-.08 1.227 0 2.267.427 3.12 1.28.853.853 1.28 1.893 1.28 3.12 0 1.76-.8 3.2-2.4 4.32-1.546 1.12-3.546 1.68-6 1.68Zm-11.6-17.12v-1.76c-.373.213-2.72.88-7.04 2-2.933.747-4.4 1.893-4.4 3.44 0 2.453 1.44 3.68 4.32 3.68 4.747 0 7.12-2.453 7.12-7.36Zm37.681-21.6v2.4c3.306-4.267 7.44-6.4 12.4-6.4 4.853 0 8.72 1.893 11.6 5.68 2.88 3.733 4.32 8.773 4.32 15.12 0 6.56-1.467 11.76-4.4 15.6-2.934 3.84-6.88 5.76-11.84 5.76-1.974 0-3.76-.373-5.36-1.12-1.014-.48-2.56-1.493-4.64-3.04v6.16c0 1.653.64 2.48 1.92 2.48.533 0 1.146-.08 1.84-.24.96-.107 1.653-.16 2.08-.16 2.453 0 3.68 1.387 3.68 4.16 0 3.2-1.654 4.8-4.96 4.8-.96 0-2.427-.107-4.4-.32-2.454-.267-4.88-.4-7.28-.4-1.014 0-3.28.213-6.8.64-.64.053-1.12.08-1.44.08-1.387 0-2.534-.507-3.44-1.52-.907-.96-1.36-2.213-1.36-3.76 0-2.987 1.306-4.48 3.92-4.48.426 0 .826.08 1.2.24.96.213 1.413.32 1.36.32.96 0 1.44-1.52 1.44-4.56V105.6c0-3.04-.454-4.56-1.36-4.56-.16 0-.64.133-1.44.4-.534.107-.96.16-1.28.16-2.56 0-3.84-1.493-3.84-4.48 0-1.547.426-2.827 1.28-3.84.853-1.013 1.946-1.52 3.28-1.52h.56l2.8.4c.373.107 1.146.16 2.32.16a27.4 27.4 0 0 0 4.32-.32c.693-.107 1.2-.16 1.52-.16 1.333 0 2 .933 2 2.8Zm8.88 6.16c-2.08 0-3.707.96-4.88 2.88-1.174 1.92-1.76 4.587-1.76 8 0 3.36.586 6.027 1.76 8 1.173 1.973 2.746 2.96 4.72 2.96 2.026 0 3.653-.987 4.88-2.96 1.226-1.973 1.84-4.64 1.84-8 0-3.307-.614-5.947-1.84-7.92-1.174-1.973-2.747-2.96-4.72-2.96Zm62.767 7.76c0 2.24-.294 3.733-.88 4.48-.534.747-1.627 1.12-3.28 1.12h-19.52c-.96 0-1.574.107-1.84.32-.214.16-.32.613-.32 1.36 0 2.24.72 4.107 2.16 5.6 1.44 1.493 3.253 2.24 5.44 2.24 2.24 0 4.533-1.227 6.88-3.68 1.6-1.707 3.36-2.56 5.28-2.56 1.6 0 2.88.453 3.84 1.36 1.013.907 1.52 2.053 1.52 3.44 0 3.093-1.707 5.733-5.12 7.92-3.36 2.133-7.467 3.2-12.32 3.2-6.347 0-11.414-1.92-15.2-5.76-3.787-3.84-5.68-8.96-5.68-15.36 0-6.453 1.866-11.653 5.6-15.6 3.786-4 8.72-6 14.8-6 5.653 0 10.16 1.627 13.52 4.88 3.413 3.253 5.12 7.6 5.12 13.04Zm-25.44-4c0 .32.08.587.24.8.16.213.72.32 1.68.32h8.96c.8 0 1.28-.08 1.44-.24.213-.213.32-.56.32-1.04 0-1.387-.614-2.587-1.84-3.6-1.227-1.067-2.667-1.6-4.32-1.6-2.134 0-3.867.827-5.2 2.48-.854 1.067-1.28 2.027-1.28 2.88Zm46.392-26.4c1.493 0 2.24.987 2.24 2.96v37.84c0 2.667.533 4 1.6 4 .426 0 .8-.053 1.12-.16.32-.107.746-.16 1.28-.16 2.346 0 3.52 1.387 3.52 4.16 0 3.68-1.6 5.52-4.8 5.52-.054 0-2.08-.16-6.08-.48a45.228 45.228 0 0 0-3.92-.16c-1.174 0-2.427.08-3.76.24-2.24.267-3.654.4-4.24.4-1.44 0-2.614-.48-3.52-1.44-.907-1.013-1.36-2.32-1.36-3.92 0-2.987 1.306-4.48 3.92-4.48.32 0 .746.107 1.28.32.586.16 1.04.24 1.36.24.906 0 1.36-1.493 1.36-4.48V91.92c0-2.987-.454-4.48-1.36-4.48-.374 0-.854.107-1.44.32-.32.107-.747.16-1.28.16-2.56 0-3.84-1.467-3.84-4.4 0-1.653.453-2.96 1.36-3.92.906-.96 2.133-1.44 3.68-1.44.426 0 1.333.08 2.72.24 1.813.213 3.173.32 4.08.32 1.226 0 2.293-.107 3.2-.32 1.226-.16 2.186-.24 2.88-.24ZM18 191.84c1.813 0 2.72-1.653 2.72-4.96v-23.04c0-3.573-1.307-5.36-3.92-5.36s-3.92.907-3.92 2.72c0 .533.08 1.36.24 2.48.213 1.067.32 1.867.32 2.4 0 4.747-2 7.12-6 7.12-1.867 0-3.333-.587-4.4-1.76-1.067-1.227-1.6-2.853-1.6-4.88 0-.693.107-1.947.32-3.76.16-1.387.24-2.667.24-3.84 0-.64-.08-1.947-.24-3.92-.107-1.333-.16-2.4-.16-3.2 0-2.347 1.173-3.52 3.52-3.52 1.227 0 2.773.08 4.64.24 4.267.373 10.24.56 17.92.56 7.733 0 13.733-.187 18-.56 1.867-.16 3.387-.24 4.56-.24 2.4 0 3.6 1.173 3.6 3.52 0 .8-.08 2-.24 3.6-.107 1.547-.16 2.72-.16 3.52 0 .853.08 2.133.24 3.84.213 2.24.32 3.52.32 3.84 0 2.027-.56 3.627-1.68 4.8-1.067 1.173-2.507 1.76-4.32 1.76-4 0-6-2.293-6-6.88 0-.64.08-1.493.24-2.56.16-1.067.24-1.867.24-2.4 0-1.92-1.173-2.88-3.52-2.88-1.547 0-2.64.4-3.28 1.2-.64.8-.96 2.187-.96 4.16v23.04c0 3.307.907 4.96 2.72 4.96.587 0 1.44-.08 2.56-.24 1.173-.213 2.053-.32 2.64-.32 3.2 0 4.8 1.6 4.8 4.8 0 4.213-2 6.32-6 6.32-1.547 0-3.387-.107-5.52-.32-3.2-.32-5.947-.48-8.24-.48-2.347 0-5.093.16-8.24.48-2.08.213-3.92.32-5.52.32-4 0-6-1.947-6-5.84 0-3.52 1.627-5.28 4.88-5.28.587 0 1.44.107 2.56.32 1.173.16 2.053.24 2.64.24Zm56.67-30.08c1.494 0 2.24 1.04 2.24 3.12v24.08c0 2.72.507 4.08 1.52 4.08.214 0 .587-.053 1.12-.16.587-.16 1.067-.24 1.44-.24 2.24 0 3.36 1.387 3.36 4.16 0 3.68-1.573 5.52-4.72 5.52-.533 0-2.026-.133-4.48-.4-1.493-.16-3.2-.24-5.12-.24-.96 0-2.373.107-4.24.32-1.866.213-3.253.32-4.16.32-1.44 0-2.613-.48-3.52-1.44-.906-1.013-1.36-2.293-1.36-3.84 0-3.04 1.28-4.56 3.84-4.56l2.08.48c.214.053.4.08.56.08.96 0 1.44-1.493 1.44-4.48V175.6c0-3.04-.453-4.56-1.36-4.56-.16 0-.64.133-1.44.4-.533.107-.96.16-1.28.16-2.56 0-3.84-1.493-3.84-4.48 0-1.6.454-2.88 1.36-3.84.907-1.013 2.107-1.52 3.6-1.52.587 0 1.44.08 2.56.24 1.867.267 3.36.4 4.48.4.907 0 2.08-.107 3.52-.32 1.44-.213 2.24-.32 2.4-.32Zm-4.56-3.04c-1.973 0-3.68-.72-5.12-2.16-1.44-1.44-2.16-3.147-2.16-5.12 0-2.027.694-3.733 2.08-5.12 1.44-1.44 3.174-2.16 5.2-2.16 2.027 0 3.734.72 5.12 2.16 1.44 1.387 2.16 3.093 2.16 5.12s-.72 3.76-2.16 5.2c-1.386 1.387-3.093 2.08-5.12 2.08Zm18.866 49.44c0 .747-.187 1.44-.56 2.08.426.107.906.16 1.44.16 1.813 0 3.066-.8 3.76-2.4.746-1.6 1.12-4.453 1.12-8.56V175.6c0-3.04-.48-4.56-1.44-4.56-.32 0-.854.107-1.6.32-.694.16-1.174.24-1.44.24-2.294 0-3.44-1.493-3.44-4.48 0-3.573 1.573-5.36 4.72-5.36.8 0 1.946.107 3.44.32 1.546.213 2.72.32 3.52.32.8 0 2-.107 3.6-.32 1.6-.213 2.48-.32 2.64-.32 1.493 0 2.24 1.04 2.24 3.12v36.64c0 2.987-.267 5.307-.8 6.96-.534 1.707-1.547 3.36-3.04 4.96-3.254 3.52-7.734 5.28-13.44 5.28-3.947 0-7.174-.827-9.68-2.48-2.507-1.6-3.76-3.707-3.76-6.32 0-1.867.666-3.44 2-4.72 1.333-1.28 2.986-1.92 4.96-1.92 1.653 0 3.013.453 4.08 1.36 1.12.96 1.68 2.133 1.68 3.52Zm10.96-49.44c-2.027 0-3.76-.693-5.2-2.08-1.44-1.44-2.16-3.173-2.16-5.2s.72-3.733 2.16-5.12c1.44-1.44 3.173-2.16 5.2-2.16 2.026 0 3.733.72 5.12 2.16 1.44 1.387 2.16 3.093 2.16 5.12 0 1.973-.72 3.68-2.16 5.12-1.387 1.44-3.094 2.16-5.12 2.16Zm53.53 19.84c0 2.24-.294 3.733-.88 4.48-.534.747-1.627 1.12-3.28 1.12h-19.52c-.96 0-1.574.107-1.84.32-.214.16-.32.613-.32 1.36 0 2.24.72 4.107 2.16 5.6 1.44 1.493 3.253 2.24 5.44 2.24 2.24 0 4.533-1.227 6.88-3.68 1.6-1.707 3.36-2.56 5.28-2.56 1.6 0 2.88.453 3.84 1.36 1.013.907 1.52 2.053 1.52 3.44 0 3.093-1.707 5.733-5.12 7.92-3.36 2.133-7.467 3.2-12.32 3.2-6.347 0-11.414-1.92-15.2-5.76-3.787-3.84-5.68-8.96-5.68-15.36 0-6.453 1.866-11.653 5.6-15.6 3.786-4 8.72-6 14.8-6 5.653 0 10.16 1.627 13.52 4.88 3.413 3.253 5.12 7.6 5.12 13.04Zm-25.44-4c0 .32.08.587.24.8.16.213.72.32 1.68.32h8.96c.8 0 1.28-.08 1.44-.24.213-.213.32-.56.32-1.04 0-1.387-.614-2.587-1.84-3.6-1.227-1.067-2.667-1.6-4.32-1.6-2.134 0-3.867.827-5.2 2.48-.854 1.067-1.28 2.027-1.28 2.88Zm46.632-10.32v6.8c.746-2.72 1.626-4.72 2.64-6 2.346-2.933 5.626-4.4 9.84-4.4 2.933 0 5.386.96 7.36 2.88 2.026 1.867 3.04 4.187 3.04 6.96 0 2.187-.64 4-1.92 5.44-1.28 1.387-2.907 2.08-4.88 2.08-1.494 0-2.774-.48-3.84-1.44-1.014-.96-1.52-2.133-1.52-3.52 0-.747.346-1.787 1.04-3.12h-.48c-3.574 0-5.974 1.893-7.2 5.68-.96 3.04-1.44 6.533-1.44 10.48v3.04c0 1.92.16 3.147.48 3.68.213.32.586.48 1.12.48.48 0 1.146-.107 2-.32.853-.213 1.493-.32 1.92-.32 1.173 0 2.16.427 2.96 1.28.853.8 1.28 1.787 1.28 2.96 0 1.547-.534 2.853-1.6 3.92-1.014 1.013-2.267 1.52-3.76 1.52-.8 0-2.294-.133-4.48-.4-1.334-.16-3.014-.24-5.04-.24-2.027 0-3.814.08-5.36.24-2.56.267-4.134.4-4.72.4-3.307 0-4.96-1.787-4.96-5.36 0-2.987 1.28-4.48 3.84-4.48.426 0 .906.107 1.44.32.533.16.933.24 1.2.24.906 0 1.36-1.493 1.36-4.48V175.6c0-3.04-.454-4.56-1.36-4.56-.214 0-.64.107-1.28.32-.587.16-1.04.24-1.36.24-2.56 0-3.84-1.467-3.84-4.4 0-1.6.426-2.907 1.28-3.92.853-1.013 1.946-1.52 3.28-1.52.533 0 1.28.107 2.24.32.96.213 1.866.32 2.72.32.64 0 1.573-.107 2.8-.32 1.226-.213 2.133-.32 2.72-.32 1.653 0 2.48.827 2.48 2.48Zm60.221 39.12c-4.374 0-7.307-1.76-8.8-5.28-3.734 3.52-8.16 5.28-13.28 5.28-4.214 0-7.574-1.093-10.08-3.28-2.507-2.24-3.76-5.2-3.76-8.88 0-5.6 2.426-9.227 7.28-10.88 2.08-.693 4.48-1.28 7.2-1.76 3.786-.64 6.346-1.36 7.68-2.16 1.386-.853 2.08-2.133 2.08-3.84 0-1.227-.534-2.24-1.6-3.04-1.014-.853-2.294-1.28-3.84-1.28-1.76 0-2.64.56-2.64 1.68 0 .373.026.747.08 1.12v.32c0 1.493-.64 2.747-1.92 3.76-1.227 1.013-2.774 1.52-4.64 1.52-2.134 0-3.894-.64-5.28-1.92-1.387-1.28-2.08-2.88-2.08-4.8 0-2.88 1.52-5.147 4.56-6.8 3.04-1.653 7.226-2.48 12.56-2.48 5.76 0 10.053.88 12.88 2.64 3.04 1.92 4.56 5.493 4.56 10.72v16.56c0 1.707.426 2.56 1.28 2.56a8.56 8.56 0 0 0 1.2-.08c.16-.053.346-.08.56-.08 1.226 0 2.266.427 3.12 1.28.853.853 1.28 1.893 1.28 3.12 0 1.76-.8 3.2-2.4 4.32-1.547 1.12-3.547 1.68-6 1.68Zm-11.6-17.12v-1.76c-.374.213-2.72.88-7.04 2-2.934.747-4.4 1.893-4.4 3.44 0 2.453 1.44 3.68 4.32 3.68 4.746 0 7.12-2.453 7.12-7.36Z" fill="#009048"/><path d="M262.88 133.36c-6.613 0-11.733-1.867-15.36-5.6-3.573-3.733-5.36-8.987-5.36-15.76 0-6.72 1.787-11.947 5.36-15.68 3.573-3.787 8.587-5.68 15.04-5.68 6.347 0 11.333 1.867 14.96 5.6 3.68 3.733 5.52 8.853 5.52 15.36 0 6.827-1.787 12.16-5.36 16-3.52 3.84-8.453 5.76-14.8 5.76Zm-10.8-49.84c0-1.067.48-2 1.44-2.8.373-.267 1.333-.827 2.88-1.68l7.44-4.08c1.547-.853 3.013-1.28 4.4-1.28 1.28 0 2.4.56 3.36 1.68 1.013 1.067 1.52 2.347 1.52 3.84 0 1.92-1.76 3.573-5.28 4.96l-7.2 2.8c-2.187.853-3.84 1.28-4.96 1.28-1.333 0-2.373-.827-3.12-2.48a5.28 5.28 0 0 1-.48-2.24Zm10.48 16.96c-2.347 0-4.213 1.04-5.6 3.12-1.333 2.027-2 4.827-2 8.4 0 3.627.667 6.453 2 8.48 1.387 2.027 3.307 3.04 5.76 3.04 4.96 0 7.44-3.84 7.44-11.52s-2.533-11.52-7.6-11.52Z" fill="#91CCAF"/></svg>