<svg width="281" height="235" fill="none" xmlns="http://www.w3.org/2000/svg"><path d="M7.718 6.96c0-1.547-.44-2.32-1.32-2.32h-.16c-.053 0-.146.013-.28.04a.355.355 0 0 0-.16.04h-.16.08c-.48.08-.866.12-1.16.12-1.253 0-1.88-.6-1.88-1.8 0-1.253.787-1.88 2.36-1.88h.36c.107 0 .214.013.32.04h-.04l1.88.24c.64.08 1.387.12 2.24.12.587 0 1.347-.04 2.28-.12h-.04c1.04-.107 1.96-.173 2.76-.2a33.25 33.25 0 0 1 2.08-.08c1.76 0 3.214.133 4.36.4.827.24 1.6.6 2.32 1.08.747.453 1.374 1 1.88 1.64.534.64.947 1.36 1.24 2.16.32.773.48 1.6.48 2.48 0 2.587-.88 4.573-2.64 5.96-1.733 1.36-4.28 2.04-7.64 2.04h-3.8c-.293 0-.506-.013-.64-.04-.106.027-.173.08-.2.16v1.24c0 3.253.08 5.173.24 5.76.107.427.467.64 1.08.64h.36c.107-.027.227-.053.36-.08h.4c.16-.027.28-.04.36-.04h.2a.355.355 0 0 1 .16-.04c1.227 0 1.84.587 1.84 1.76 0 1.28-.813 1.92-2.44 1.92a.354.354 0 0 0-.16-.04h-.2a.355.355 0 0 1-.16-.04l-1.92-.28c-.533-.08-1.306-.12-2.32-.12-.853 0-1.56.04-2.12.12l-2.24.32c-.08 0-.16.013-.24.04h-.32c-1.6 0-2.4-.627-2.4-1.88 0-.533.174-.96.52-1.28.374-.347.814-.52 1.32-.52.374 0 .76.04 1.16.12.107 0 .214.013.32.04h.36c.88 0 1.32-.773 1.32-2.32V6.96Zm4.68-1.68c-.106.133-.16.733-.16 1.8v5.68c0 .347.32.56.96.64.16 0 .294.013.4.04h.84a7.05 7.05 0 0 1 .84-.04 60.73 60.73 0 0 0 2.36-.12 14.501 14.501 0 0 0 2.04-.28c1.947-.507 2.92-1.827 2.92-3.96 0-2.907-1.866-4.36-5.6-4.36-2.8 0-4.333.2-4.6.6Zm21.95 2.76c.88 0 1.4.347 1.56 1.04 1.306-1.147 2.866-1.72 4.68-1.72.986 0 1.88.147 2.68.44.8.267 1.492.667 2.08 1.2a5.177 5.177 0 0 1 1.36 1.84c.32.72.48 1.52.48 2.4 0 1.28-.334 2.32-1 3.12-.668.773-1.56 1.16-2.68 1.16-.774 0-1.428-.227-1.96-.68-.508-.453-.76-1.013-.76-1.68 0-.533.213-1.013.64-1.44.453-.427.96-.64 1.52-.64.053 0 .04-.013-.04-.04-.054-.027-.014-.013.12.04v-.2c0-.587-.267-1.08-.8-1.48-.508-.4-1.148-.6-1.92-.6-1.68 0-2.8.773-3.36 2.32-.374 1.067-.56 2.64-.56 4.72v4.36c0 .453.013.733.04.84.133 1.173.306 1.76.52 1.76h.44l.4-.08c.346-.107.653-.16.92-.16 1.226 0 1.84.573 1.84 1.72 0 1.253-.734 1.88-2.2 1.88h-.12c-.214 0-.48-.013-.8-.04-.294-.027-.64-.067-1.04-.12-.774-.08-1.32-.12-1.64-.12-.508 0-.947.013-1.32.04-.374 0-.707.013-1 .04l-2.16.2c-1.468 0-2.2-.627-2.2-1.88 0-1.12.692-1.68 2.08-1.68h.32a.583.583 0 0 1 .36.04l.48.12h.32c.026.027.066.04.12.04h.04c.24 0 .372-.4.4-1.2 0-.32.012-.64.04-.96.026-.32.04-.64.04-.96l-.12-8.6c-.054-.987-.188-1.547-.4-1.68a4.6 4.6 0 0 0-.4.04c-.214.027-.36.04-.44.04h.08c-.32.08-.654.12-1 .12-1.254 0-1.88-.587-1.88-1.76 0-1.227.746-1.84 2.24-1.84.053.027.213.053.48.08.266 0 .506.013.72.04.213.027.413.053.6.08H32.827c.106 0 .226-.013.36-.04h.12a.445.445 0 0 1 .2-.04c.266-.053.546-.08.84-.08Zm32.768 8.28c0 .613-.014 1.093-.04 1.44-.027.347-.107.613-.24.8-.134.187-.334.307-.6.36-.24.027-.587.04-1.04.04h-12.04c-.107 0-.16.013-.16.04 0 1.787.52 3.24 1.56 4.36.986 1.147 2.226 1.72 3.72 1.72.986 0 1.88-.267 2.68-.8.8-.533 1.32-1.213 1.56-2.04l.36-1.08c.16-.4.386-.72.68-.96.32-.24.706-.36 1.16-.36 1.386 0 2.08.667 2.08 2 0 1.813-.934 3.413-2.8 4.8-1.787 1.333-3.8 2-6.04 2-2.88 0-5.16-.947-6.84-2.84-1.654-1.893-2.48-4.4-2.48-7.52 0-3.147.88-5.76 2.64-7.84 1.786-2.053 4.12-3.08 7-3.08 1.333 0 2.52.213 3.56.64a8.49 8.49 0 0 1 2.8 1.88c1.653 1.733 2.48 3.88 2.48 6.44Zm-4.36-.96c0-1.2-.44-2.24-1.32-3.12-.934-.88-1.974-1.32-3.12-1.32-1.174 0-2.32.48-3.44 1.44-1.014.933-1.52 1.933-1.52 3h9.4Zm15.612-8c1.467 0 2.707.293 3.72.88.24-.747.827-1.12 1.76-1.12 1.254 0 1.88.587 1.88 1.76a.355.355 0 0 1-.04.16v.28c0 .107-.013.24-.04.4v.4a6.774 6.774 0 0 0-.16 1.4c0 .347.04.76.12 1.24.054.293.094.56.12.8.027.213.04.413.04.6 0 1.333-.626 2-1.88 2-1.226 0-1.866-.573-1.92-1.72l-.04-1.28c-.026-.613-.4-1.133-1.12-1.56-.693-.453-1.533-.68-2.52-.68-.96 0-1.773.24-2.44.72-.666.48-1 1.093-1 1.84 0 .64.254 1.16.76 1.56.507.373 1.174.64 2 .8.374.053.734.107 1.08.16l1.12.16c4.694.64 7.04 2.587 7.04 5.84 0 1.947-.786 3.573-2.36 4.88-1.546 1.173-3.493 1.76-5.84 1.76-1.76 0-3.36-.4-4.8-1.2-.133 1.013-.773 1.52-1.92 1.52-1.36 0-2.04-.693-2.04-2.08.054-.4.094-.72.12-.96.054-.24.094-.453.12-.64a3.95 3.95 0 0 0 .04-.56 7.49 7.49 0 0 0 .04-.88c0-.293-.026-.6-.08-.92a9.385 9.385 0 0 0-.12-.96 4.789 4.789 0 0 1-.12-1.08c0-1.227.627-1.84 1.88-1.84.854 0 1.374.227 1.56.68.187.4.294 1.133.32 2.2.027.933.52 1.693 1.48 2.28.987.587 2.267.88 3.84.88 1.04 0 1.894-.253 2.56-.76.694-.533 1.04-1.213 1.04-2.04 0-1.413-1.173-2.24-3.52-2.48a35.421 35.421 0 0 1-3.68-.6c-1.066-.267-1.96-.613-2.68-1.04-.72-.453-1.266-1.027-1.64-1.72-.373-.693-.56-1.56-.56-2.6 0-.96.187-1.84.56-2.64.4-.8.947-1.48 1.64-2.04.694-.56 1.52-1 2.48-1.32.96-.32 2.027-.48 3.2-.48ZM96.776 21.4v1.48c0 .347.013.587.04.72.08.8.2 1.2.36 1.2-.027 0 .04-.013.2-.04.16-.027.36-.067.6-.12l-.04.04c.08-.027.173-.053.28-.08.133-.027.293-.04.48-.04 1.387 0 2.08.587 2.08 1.76 0 .533-.227.973-.68 1.32-.427.347-.973.52-1.64.52-.213 0-.48-.013-.8-.04-.32-.027-.693-.067-1.12-.12-.4-.053-.747-.093-1.04-.12a4.197 4.197 0 0 0-.72-.08c-.293 0-.627.013-1 .04-.347.027-.72.067-1.12.12-.48.053-.893.093-1.24.12-.32.053-.587.08-.8.08-1.44 0-2.16-.613-2.16-1.84 0-1.173.653-1.76 1.96-1.76.053 0 .2.013.44.04.267.027.48.053.64.08.187.053.333.08.44.08h.24c.213 0 .36-.64.44-1.92V13.2c-.08-1.253-.24-1.88-.48-1.88-.053 0-.147.013-.28.04a6.301 6.301 0 0 0-.48.12 2.103 2.103 0 0 1-.48.12h-.4c-1.36 0-2.04-.587-2.04-1.76 0-1.2.773-1.8 2.32-1.8h.72c.187 0 .32.013.4.04.373.053.68.093.92.12.267.027.44.04.52.04h.32c.187-.027.36-.053.52-.08l1.04-.12c1.147 0 1.72.667 1.72 2v.56c-.027.107-.04.2-.04.28V11c-.027.08-.04.453-.04 1.12 0 .187-.013.387-.04.6v.6c-.027.533-.04 1.067-.04 1.6v6.48Zm-2.64-14.32c-.773 0-1.427-.253-1.96-.76-.533-.507-.8-1.133-.8-1.88 0-.747.267-1.36.8-1.84.533-.507 1.187-.76 1.96-.76.773 0 1.427.253 1.96.76.56.48.84 1.093.84 1.84 0 .747-.28 1.373-.84 1.88-.533.507-1.187.76-1.96.76Zm17.063 21.56c-2.854 0-5.134-.973-6.84-2.92-1.707-1.947-2.56-4.52-2.56-7.72 0-3.227.853-5.787 2.56-7.68 1.706-1.973 4.026-2.96 6.96-2.96 2.933 0 5.266.96 7 2.88 1.68 1.893 2.52 4.44 2.52 7.64 0 3.253-.867 5.84-2.6 7.76-1.734 2-4.08 3-7.04 3Zm.2-17.72c-1.6 0-2.854.573-3.76 1.72-.88 1.147-1.36 2.787-1.44 4.92V18c0 2.213.44 3.947 1.32 5.2.88 1.253 2.12 1.88 3.72 1.88 1.626 0 2.906-.613 3.84-1.84.96-1.253 1.44-3.013 1.44-5.28 0-4.693-1.707-7.04-5.12-7.04Zm17.676-2.88c.986 0 1.56.413 1.72 1.24 1.44-1.28 3.253-1.92 5.44-1.92a8.33 8.33 0 0 1 4.2 1.12h-.04c1.386.8 2.306 1.747 2.76 2.84.4.933.6 2.12.6 3.56v9.08c.026.427.12.693.28.8h.52c.213-.027.386-.053.52-.08.133-.027.253-.04.36-.04.106-.027.24-.04.4-.04.48 0 .906.173 1.28.52.373.32.56.707.56 1.16 0 .533-.214.987-.64 1.36-.427.347-.947.52-1.56.52-.134 0-.347-.013-.64-.04-.267 0-.547-.027-.84-.08-.4-.053-.84-.093-1.32-.12a10.44 10.44 0 0 0-1.2-.08c-.267 0-.547.013-.84.04-.267 0-.507.013-.72.04-.587.08-1.067.133-1.44.16-.374.053-.587.08-.64.08-1.44 0-2.16-.627-2.16-1.88 0-1.12.64-1.68 1.92-1.68.106.027.213.04.32.04.106 0 .2.013.28.04h.32c.133.027.24.053.32.08h.2a.65.65 0 0 0 .16.04c.186 0 .293-.507.32-1.52 0-.32.013-.64.04-.96.026-.347.04-.68.04-1l.04-2.28v-2.88c0-1.2-.067-2.093-.2-2.68-.08-.4-.227-.76-.44-1.08a2.914 2.914 0 0 0-.76-.84v.04c-.774-.533-1.587-.8-2.44-.8-1.787 0-3.067.627-3.84 1.88-.534.907-.8 2.507-.8 4.8v5.04c0 .907.026 1.52.08 1.84.08.32.2.48.36.48.026 0 .106-.013.24-.04.133-.027.28-.053.44-.08.16-.053.306-.093.44-.12.16-.027.346-.04.56-.04 1.226 0 1.84.6 1.84 1.8 0 1.2-.72 1.8-2.16 1.8-.134 0-.4-.027-.8-.08-.374-.053-.8-.107-1.28-.16a11.915 11.915 0 0 0-2.64-.08c-.32.027-.707.067-1.16.12l-.88.08c-.24.053-.467.08-.68.08-.214.027-.347.04-.4.04-1.494 0-2.24-.613-2.24-1.84 0-1.147.613-1.72 1.84-1.72.133 0 .24.013.32.04.106 0 .213.013.32.04.346.08.706.12 1.08.12.32 0 .493-.547.52-1.64 0-.693.013-1.387.04-2.08.026-.72.04-1.427.04-2.12v-4.6l-.08-1.32c-.054-.587-.107-1-.16-1.24-.054-.267-.147-.427-.28-.48a1.48 1.48 0 0 1-.36.08 1.89 1.89 0 0 0-.44.04c-.16.027-.307.053-.44.08h-.4c-1.334 0-2-.587-2-1.76s.773-1.76 2.32-1.76h.24c.08-.027.173-.013.28.04l1.32.16h.44c.186-.027.36-.053.52-.08a4.36 4.36 0 0 1 .52-.04c.16-.027.346-.04.56-.04Zm37.028 20.44c-1.973 0-3.306-.667-4-2-1.413 1.44-3.373 2.16-5.88 2.16-2.266 0-4.066-.547-5.4-1.64-1.333-1.12-2-2.6-2-4.44 0-1.12.267-2.107.8-2.96a6.334 6.334 0 0 1 2.24-2.12c.72-.4 1.347-.667 1.88-.8.507-.133 1.534-.293 3.08-.48 2.027-.213 3.32-.493 3.88-.84.454-.32.68-.92.68-1.8 0-.853-.306-1.533-.92-2.04-.586-.507-1.426-.76-2.52-.76-1.04 0-1.986.293-2.84.88v-.04c-.186.187-.28.293-.28.32h.04c.56.48.84 1.053.84 1.72s-.253 1.213-.76 1.64c-.48.427-1.093.64-1.84.64-.853 0-1.56-.267-2.12-.8-.56-.56-.84-1.253-.84-2.08 0-1.6.787-2.947 2.36-4.04 1.494-1.093 3.32-1.64 5.48-1.64 5.04 0 7.56 2.387 7.56 7.16v9c.027.347.054.587.08.72.134.587.347.88.64.88.454 0 .68-.627.68-1.88v-1.88c0-1.147.6-1.72 1.8-1.72 1.28 0 1.92.773 1.92 2.32v.2l-.04 2.16c-.053 2.773-1.56 4.16-4.52 4.16Zm-2.84-26.2c0 .853-.573 1.52-1.72 2l-5.44 2.4a2.803 2.803 0 0 1-.36.12h-.36c-.96 0-1.44-.48-1.44-1.44 0-.48.374-.96 1.12-1.44l4.76-3c.214-.133.454-.24.72-.32.267-.107.52-.16.76-.16 1.307 0 1.96.613 1.96 1.84Zm-1.96 16.64c-.16.053-.32.12-.48.2a4.972 4.972 0 0 1-.48.16c-.72.24-1.853.427-3.4.56-2.506.24-3.76 1.133-3.76 2.68 0 .773.28 1.4.84 1.88.587.453 1.387.68 2.4.68 1.52 0 2.694-.413 3.52-1.24.854-.827 1.294-1.96 1.32-3.4l.04-1.52Zm19.379 11.64c0 .24-.04.467-.12.68-.08.24-.187.467-.32.68.186.107.386.187.6.24.213.08.413.12.6.12 1.2 0 2.053-.373 2.56-1.12.533-.747.8-1.947.8-3.6V15.64c0-2.213-.054-3.533-.16-3.96-.027-.267-.16-.4-.4-.4-.08 0-.2.013-.36.04-.134.027-.307.067-.52.12v-.04c-.134.053-.28.093-.44.12a2.04 2.04 0 0 1-.4.04c-1.254 0-1.88-.587-1.88-1.76s.746-1.76 2.24-1.76h.6c.186 0 .346.013.48.04.8.08 1.333.12 1.6.12h.32l.56-.08c.186-.027.413-.053.68-.08.293-.027.413-.04.36-.04 1.146 0 1.72.587 1.72 1.76v.28c0 .133-.014.293-.04.48-.027.24-.04.453-.04.64v.48c-.027.213-.04.547-.04 1 0 .427-.014.987-.04 1.68 0 .213-.014.413-.04.6v.52c-.027.533-.04 1.013-.04 1.44v9.68c0 .8-.027 1.48-.08 2.04a15.77 15.77 0 0 1-.12 1.44 8.707 8.707 0 0 1-.56 1.72 6.31 6.31 0 0 1-.96 1.56c-1.334 1.573-3.187 2.36-5.56 2.36a7.42 7.42 0 0 1-2.36-.36 5.885 5.885 0 0 1-1.88-.92c-.534-.4-.947-.88-1.24-1.44a3.357 3.357 0 0 1-.48-1.76c0-.773.253-1.427.76-1.96.48-.533 1.093-.8 1.84-.8.64 0 1.2.2 1.68.6.453.427.68.933.68 1.52Zm5.72-23.48c-.774 0-1.427-.253-1.96-.76-.534-.507-.8-1.133-.8-1.88 0-.747.266-1.36.8-1.84.533-.507 1.186-.76 1.96-.76.773 0 1.426.267 1.96.8.56.507.84 1.107.84 1.8 0 .747-.28 1.373-.84 1.88-.534.507-1.187.76-1.96.76Zm24.16 21.08c-1.013 0-1.586-.413-1.72-1.24-1.386 1.147-3.146 1.72-5.28 1.72-3.226 0-5.48-1.013-6.76-3.04a5.928 5.928 0 0 1-.64-1.44 6.737 6.737 0 0 1-.28-1.6c-.026-.32-.04-.773-.04-1.36v-5.16c0-3.12-.16-4.68-.48-4.68-.053 0-.133.013-.24.04-.106 0-.226.013-.36.04a6.713 6.713 0 0 1-.6.08c-.24.027-.333.04-.28.04-1.306 0-1.96-.6-1.96-1.8 0-1.147.76-1.72 2.28-1.72.134 0 .294.013.48.04.214 0 .427.013.64.04.214.027.414.053.6.08h.96a5.36 5.36 0 0 0 .64-.12 1.32 1.32 0 0 1 .32-.04c.107-.027.24-.04.4-.04 1.227 0 1.84.653 1.84 1.96v.8l-.04 2.52-.12 2.8v2.4c0 1.093.04 2.013.12 2.76.107.747.227 1.347.36 1.8.507 1.36 1.694 2.04 3.56 2.04.934 0 1.76-.213 2.48-.64.747-.427 1.267-1 1.56-1.72.374-.907.56-2.707.56-5.4v-4.56c-.08-.853-.2-1.28-.36-1.28-.106 0-.293.027-.56.08h-.56c-1.306 0-1.96-.573-1.96-1.72 0-1.227.707-1.84 2.12-1.84.134 0 .294.013.48.04.187 0 .387.013.6.04.214.027.414.053.6.08h.72c.16 0 .334-.013.52-.04.16-.027.32-.04.48-.04.187-.027.347-.04.48-.04 1.2 0 1.8.573 1.8 1.72 0 .373-.026.693-.08.96v-.04c-.053.48-.106 1.067-.16 1.76-.026.693-.04 1.493-.04 2.4v5.84c0 1.493.014 2.307.04 2.44.134 1.093.267 1.64.4 1.64h.28c.134-.027.28-.053.44-.08.134-.027.307-.053.52-.08.24-.027.334-.04.28-.04 1.307 0 1.96.587 1.96 1.76 0 1.227-.746 1.84-2.24 1.84h-.4a2.04 2.04 0 0 1-.4-.04.358.358 0 0 1-.16-.04h-.12c-.64-.08-1-.12-1.08-.12a.313.313 0 0 0-.12.04h-.12c-.16 0-.306.013-.44.04h.04c-.32.08-.64.12-.96.12Zm17.206-20.8c.266 0 .533.013.8.04.293.027.573.067.84.12.213-1.12.72-1.987 1.52-2.6.826-.64 1.96-.96 3.4-.96 1.36 0 2.48.347 3.36 1.04.906.693 1.36 1.587 1.36 2.68 0 .773-.267 1.427-.8 1.96-.507.533-1.107.8-1.8.8a2.33 2.33 0 0 1-1.52-.56c-.427-.4-.64-.867-.64-1.4 0-.24.026-.453.08-.64.08-.213.253-.427.52-.64a1.437 1.437 0 0 0-.36-.12.713.713 0 0 0-.32-.08c-.854 0-1.32.587-1.4 1.76.933.693 1.64 1.493 2.12 2.4.506.88.76 1.88.76 3 0 1.893-.734 3.48-2.2 4.76-1.414 1.253-3.187 1.88-5.32 1.88-.774 0-1.547-.08-2.32-.24a10.129 10.129 0 0 1-2.28-.8c-.4-.133-.654-.2-.76-.2-.187 0-.36.107-.52.32-.134.187-.2.427-.2.72 0 .96 1.106 1.44 3.32 1.44h.48c.106 0 .226-.013.36-.04h.52c2.453 0 4.466.24 6.04.72 1.52.48 2.72 1.213 3.6 2.2.906.987 1.36 2.12 1.36 3.4 0 1.013-.24 1.92-.72 2.72-.454.8-1.12 1.48-2 2.04-.88.56-1.947.987-3.2 1.28-1.254.293-2.654.44-4.2.44-3.12 0-5.56-.547-7.32-1.64-1.76-1.093-2.64-2.613-2.64-4.56 0-1.893.933-3.347 2.8-4.36-1.6-.853-2.4-2.067-2.4-3.64 0-.853.253-1.613.76-2.28.506-.667 1.186-1.2 2.04-1.6a4.308 4.308 0 0 1-.6-1.36 8.53 8.53 0 0 1-.12-1.48c0-1.84.733-3.413 2.2-4.72 1.44-1.2 3.24-1.8 5.4-1.8Zm.12 3.56c-.934 0-1.734.28-2.4.84-.667.56-1.027 1.267-1.08 2.12v.16c0 .987.32 1.773.96 2.36.64.56 1.466.84 2.48.84 1.093 0 1.973-.28 2.64-.84.666-.587 1-1.347 1-2.28 0-.933-.347-1.693-1.04-2.28-.694-.613-1.547-.92-2.56-.92Zm.04 14.68c-1.84 0-3.28.267-4.32.8-1.04.507-1.56 1.187-1.56 2.04 0 .88.506 1.56 1.52 2.04 1.013.507 2.386.76 4.12.76 1.84 0 3.28-.253 4.32-.76 1.066-.507 1.6-1.187 1.6-2.04 0-.88-.507-1.573-1.52-2.08-.987-.507-2.374-.76-4.16-.76Zm28.527 2.88c-1.973 0-3.307-.667-4-2-1.413 1.44-3.373 2.16-5.88 2.16-2.267 0-4.067-.547-5.4-1.64-1.333-1.12-2-2.6-2-4.44 0-1.12.267-2.107.8-2.96a6.334 6.334 0 0 1 2.24-2.12c.72-.4 1.347-.667 1.88-.8.507-.133 1.533-.293 3.08-.48 2.027-.213 3.32-.493 3.88-.84.453-.32.68-.92.68-1.8 0-.853-.307-1.533-.92-2.04-.587-.507-1.427-.76-2.52-.76a4.9 4.9 0 0 0-2.84.88v-.04c-.187.187-.28.293-.28.32h.04c.56.48.84 1.053.84 1.72s-.253 1.213-.76 1.64c-.48.427-1.093.64-1.84.64-.853 0-1.56-.267-2.12-.8-.56-.56-.84-1.253-.84-2.08 0-1.6.787-2.947 2.36-4.04 1.493-1.093 3.32-1.64 5.48-1.64 5.04 0 7.56 2.387 7.56 7.16v9c.027.347.053.587.08.72.133.587.347.88.64.88.453 0 .68-.627.68-1.88v-1.88c0-1.147.6-1.72 1.8-1.72 1.28 0 1.92.773 1.92 2.32v.2l-.04 2.16c-.053 2.773-1.56 4.16-4.52 4.16Zm-4.8-9.56c-.16.053-.32.12-.48.2a4.972 4.972 0 0 1-.48.16c-.72.24-1.853.427-3.4.56-2.507.24-3.76 1.133-3.76 2.68 0 .773.28 1.4.84 1.88.587.453 1.387.68 2.4.68 1.52 0 2.693-.413 3.52-1.24.853-.827 1.293-1.96 1.32-3.4l.04-1.52Zm15.778-10.88c.88 0 1.4.347 1.56 1.04 1.307-1.147 2.867-1.72 4.68-1.72.987 0 1.88.147 2.68.44.8.267 1.493.667 2.08 1.2a5.174 5.174 0 0 1 1.36 1.84c.32.72.48 1.52.48 2.4 0 1.28-.333 2.32-1 3.12-.667.773-1.56 1.16-2.68 1.16-.773 0-1.427-.227-1.96-.68-.507-.453-.76-1.013-.76-1.68 0-.533.213-1.013.64-1.44.453-.427.96-.64 1.52-.64.053 0 .04-.013-.04-.04-.053-.027-.013-.013.12.04v-.2c0-.587-.267-1.08-.8-1.48-.507-.4-1.147-.6-1.92-.6-1.68 0-2.8.773-3.36 2.32-.373 1.067-.56 2.64-.56 4.72v4.36c0 .453.013.733.04.84.133 1.173.307 1.76.52 1.76h.44l.4-.08c.347-.107.653-.16.92-.16 1.227 0 1.84.573 1.84 1.72 0 1.253-.733 1.88-2.2 1.88h-.12a9.93 9.93 0 0 1-.8-.04c-.293-.027-.64-.067-1.04-.12-.773-.08-1.32-.12-1.64-.12-.507 0-.947.013-1.32.04-.373 0-.707.013-1 .04l-2.16.2c-1.467 0-2.2-.627-2.2-1.88 0-1.12.693-1.68 2.08-1.68h.32a.582.582 0 0 1 .36.04l.48.12h.32c.027.027.067.04.12.04h.04c.24 0 .373-.4.4-1.2 0-.32.013-.64.04-.96.027-.32.04-.64.04-.96l-.12-8.6c-.053-.987-.187-1.547-.4-1.68a4.6 4.6 0 0 0-.4.04 4.24 4.24 0 0 1-.44.04h.08c-.32.08-.653.12-1 .12-1.253 0-1.88-.587-1.88-1.76 0-1.227.747-1.84 2.24-1.84.053.027.213.053.48.08.267 0 .507.013.72.04.213.027.413.053.6.08H265.913c.107 0 .227-.013.36-.04h.12a.444.444 0 0 1 .2-.04c.267-.053.547-.08.84-.08Zm-253.072 55a256.84 256.84 0 0 1 2.04-5.44c.694-1.787 1.36-3.6 2-5.44v.04c.08-.267.12-.493.12-.68 0-.08-.066-.12-.2-.12-.186 0-.386.027-.6.08a1.85 1.85 0 0 0-.36.04h-.24a.354.354 0 0 0-.16.04h-.16c-1.253 0-1.88-.587-1.88-1.76 0-1.2.747-1.8 2.24-1.8h.28c.134 0 .254.013.36.04.027 0 .04.013.04.04h.12l1.36.2c.187.027.36.04.52.04H21.161c.294-.027.654-.067 1.08-.12.427-.053.8-.093 1.12-.12.347-.027.64-.04.88-.04 1.494 0 2.24.587 2.24 1.76s-.626 1.76-1.88 1.76c-.373 0-.613-.027-.72-.08a.754.754 0 0 0-.24-.04.354.354 0 0 1-.16-.04c-.053 0-.093-.013-.12-.04-.186 0-.48.533-.88 1.6l-5.16 12.88c-1.093 2.8-2.2 4.92-3.32 6.36-1.813 2.32-4.12 3.48-6.92 3.48-1.733 0-3.16-.427-4.28-1.28-1.226-.907-1.84-1.987-1.84-3.24 0-.933.294-1.707.88-2.32.56-.587 1.307-.88 2.24-.88.774 0 1.4.213 1.88.64.507.453.76 1.013.76 1.68 0 .747-.253 1.293-.76 1.64.16.107.32.16.48.16.187.027.414.04.68.04 1.174 0 2.227-.453 3.16-1.36.96-.88 1.44-1.867 1.44-2.96 0-.56-.333-1.667-1-3.32l-4.16-10.52a1.564 1.564 0 0 0-.12-.32 4.78 4.78 0 0 1-.16-.36 7.69 7.69 0 0 1-.16-.56c-.373-.907-.666-1.36-.88-1.36-.053 0-.133.013-.24.04-.08 0-.186.013-.32.04a14.21 14.21 0 0 0-.76.12c-.266.027-.373.04-.32.04-1.28 0-1.92-.587-1.92-1.76 0-1.2.8-1.8 2.4-1.8h.56c.187 0 .32.013.4.04.24.027.467.067.68.12l.72.08h.44c.134.027.24.04.32.04.454 0 .907-.013 1.36-.04.48-.027.974-.067 1.48-.12.8-.08 1.347-.12 1.64-.12 1.494 0 2.24.587 2.24 1.76 0 1.2-.693 1.8-2.08 1.8h-.4l-.4-.08h-.28a.754.754 0 0 0-.24-.04c0 .16.04.32.12.48l3.72 11.08Zm41.544-6.72c0 .613-.014 1.093-.04 1.44-.027.347-.107.613-.24.8-.134.187-.334.307-.6.36-.24.027-.587.04-1.04.04h-12.04c-.107 0-.16.013-.16.04 0 1.787.52 3.24 1.56 4.36.986 1.147 2.226 1.72 3.72 1.72.986 0 1.88-.267 2.68-.8.8-.533 1.32-1.213 1.56-2.04l.36-1.08c.16-.4.386-.72.68-.96.32-.24.706-.36 1.16-.36 1.386 0 2.08.667 2.08 2 0 1.813-.934 3.413-2.8 4.8-1.787 1.333-3.8 2-6.04 2-2.88 0-5.16-.947-6.84-2.84-1.654-1.893-2.48-4.4-2.48-7.52 0-3.147.88-5.76 2.64-7.84 1.786-2.053 4.12-3.08 7-3.08 1.333 0 2.52.213 3.56.64a8.49 8.49 0 0 1 2.8 1.88c1.653 1.733 2.48 3.88 2.48 6.44Zm-4.36-.96c0-1.2-.44-2.24-1.32-3.12-.934-.88-1.974-1.32-3.12-1.32-1.174 0-2.32.48-3.44 1.44-1.014.933-1.52 1.933-1.52 3h9.4Zm14.132 8.04c.027.933.147 1.4.36 1.4.054 0 .12-.013.2-.04h.16c.08-.027.174-.053.28-.08h.16a.355.355 0 0 1 .16-.04h.08c0-.027.027-.04.08-.04a.445.445 0 0 1 .2-.04h.24c1.254 0 1.88.6 1.88 1.8 0 1.2-.733 1.8-2.2 1.8-.213 0-.493-.013-.84-.04a35.31 35.31 0 0 1-1.16-.12 24.805 24.805 0 0 0-1.16-.12 9.924 9.924 0 0 0-.8-.04c-.186 0-.426.013-.72.04-.293.027-.64.067-1.04.12-.373.053-.72.093-1.04.12-.32.027-.586.04-.8.04h-.2c-1.493 0-2.24-.64-2.24-1.92 0-1.12.654-1.68 1.96-1.68h.4c.107.027.214.04.32.04.32.053.547.093.68.12.134.027.227.04.28.04.107 0 .187-.067.24-.2.054-.187.094-.52.12-1 .027-.48.054-1.12.08-1.92v-1.32c.027-.453.04-.893.04-1.32l.12-5.88V51.6c0-.587-.013-1.2-.04-1.84V46.4l-.12-1.52c-.053-.08-.12-.16-.2-.24-.08-.08-.16-.12-.24-.12-.026 0-.346.053-.96.16a1.85 1.85 0 0 1-.36.04h-.32c-1.306 0-1.96-.573-1.96-1.72 0-1.2.72-1.8 2.16-1.8h.44c.187 0 .32.013.4.04l.8.12c.054 0 .107.013.16.04h.16c.134.027.254.04.36.04h.72a5.41 5.41 0 0 0 .64-.12c.24-.053.454-.093.64-.12.214-.027.427-.04.64-.04.987 0 1.48.547 1.48 1.64v.36c.027.08.014.173-.04.28-.16 1.973-.24 4.707-.24 8.2l.04 11.76Zm23.704-7.08c0 .613-.013 1.093-.04 1.44-.026.347-.106.613-.24.8-.133.187-.333.307-.6.36-.24.027-.586.04-1.04.04h-12.04c-.106 0-.16.013-.16.04 0 1.787.52 3.24 1.56 4.36.987 1.147 2.227 1.72 3.72 1.72.987 0 1.88-.267 2.68-.8.8-.533 1.32-1.213 1.56-2.04l.36-1.08c.16-.4.387-.72.68-.96.32-.24.707-.36 1.16-.36 1.387 0 2.08.667 2.08 2 0 1.813-.933 3.413-2.8 4.8-1.786 1.333-3.8 2-6.04 2-2.88 0-5.16-.947-6.84-2.84-1.653-1.893-2.48-4.4-2.48-7.52 0-3.147.88-5.76 2.64-7.84 1.787-2.053 4.12-3.08 7-3.08 1.334 0 2.52.213 3.56.64a8.49 8.49 0 0 1 2.8 1.88c1.654 1.733 2.48 3.88 2.48 6.44Zm-4.36-.96c0-1.2-.44-2.24-1.32-3.12-.933-.88-1.973-1.32-3.12-1.32-1.173 0-2.32.48-3.44 1.44-1.013.933-1.52 1.933-1.52 3h9.4Zm16.653-8c.267 0 .533.013.8.04a8 8 0 0 1 .84.12c.213-1.12.72-1.987 1.52-2.6.827-.64 1.96-.96 3.4-.96 1.36 0 2.48.347 3.36 1.04.907.693 1.36 1.587 1.36 2.68 0 .773-.267 1.427-.8 1.96-.507.533-1.107.8-1.8.8a2.33 2.33 0 0 1-1.52-.56c-.427-.4-.64-.867-.64-1.4 0-.24.027-.453.08-.64.08-.213.253-.427.52-.64a1.44 1.44 0 0 0-.36-.12.71.71 0 0 0-.32-.08c-.853 0-1.32.587-1.4 1.76.933.693 1.64 1.493 2.12 2.4.507.88.76 1.88.76 3 0 1.893-.733 3.48-2.2 4.76-1.413 1.253-3.187 1.88-5.32 1.88-.773 0-1.547-.08-2.32-.24a10.139 10.139 0 0 1-2.28-.8c-.4-.133-.653-.2-.76-.2-.187 0-.36.107-.52.32-.133.187-.2.427-.2.72 0 .96 1.107 1.44 3.32 1.44h.48c.107 0 .227-.013.36-.04h.52c2.453 0 4.467.24 6.04.72 1.52.48 2.72 1.213 3.6 2.2.907.987 1.36 2.12 1.36 3.4 0 1.013-.24 1.92-.72 2.72-.453.8-1.12 1.48-2 2.04-.88.56-1.947.987-3.2 1.28-1.253.293-2.653.44-4.2.44-3.12 0-5.56-.547-7.32-1.64-1.76-1.093-2.64-2.613-2.64-4.56 0-1.893.933-3.347 2.8-4.36-1.6-.853-2.4-2.067-2.4-3.64 0-.853.253-1.613.76-2.28.507-.667 1.187-1.2 2.04-1.6a4.335 4.335 0 0 1-.6-1.36 8.53 8.53 0 0 1-.12-1.48c0-1.84.733-3.413 2.2-4.72 1.44-1.2 3.24-1.8 5.4-1.8Zm.12 3.56c-.933 0-1.733.28-2.4.84-.667.56-1.027 1.267-1.08 2.12v.16c0 .987.32 1.773.96 2.36.64.56 1.467.84 2.48.84 1.093 0 1.973-.28 2.64-.84.667-.587 1-1.347 1-2.28 0-.933-.347-1.693-1.04-2.28-.693-.613-1.547-.92-2.56-.92Zm.04 14.68c-1.84 0-3.28.267-4.32.8-1.04.507-1.56 1.187-1.56 2.04 0 .88.507 1.56 1.52 2.04 1.013.507 2.387.76 4.12.76 1.84 0 3.28-.253 4.32-.76 1.067-.507 1.6-1.187 1.6-2.04 0-.88-.507-1.573-1.52-2.08-.987-.507-2.373-.76-4.16-.76Zm19.356-4.2v1.48c0 .347.013.587.04.72.08.8.2 1.2.36 1.2-.027 0 .04-.013.2-.04.16-.027.36-.067.6-.12l-.04.04c.08-.027.173-.053.28-.08.133-.027.293-.04.48-.04 1.387 0 2.08.587 2.08 1.76 0 .533-.227.973-.68 1.32-.427.347-.973.52-1.64.52a9.93 9.93 0 0 1-.8-.04c-.32-.027-.693-.067-1.12-.12-.4-.053-.747-.093-1.04-.12a4.19 4.19 0 0 0-.72-.08c-.293 0-.627.013-1 .04-.347.027-.72.067-1.12.12-.48.053-.893.093-1.24.12-.32.053-.587.08-.8.08-1.44 0-2.16-.613-2.16-1.84 0-1.173.653-1.76 1.96-1.76.053 0 .2.013.44.04.267.027.48.053.64.08.187.053.333.08.44.08h.24c.213 0 .36-.64.44-1.92V53.2c-.08-1.253-.24-1.88-.48-1.88-.053 0-.147.013-.28.04a6.372 6.372 0 0 0-.48.12 2.095 2.095 0 0 1-.48.12h-.4c-1.36 0-2.04-.587-2.04-1.76 0-1.2.773-1.8 2.32-1.8h.72c.187 0 .32.013.4.04.373.053.68.093.92.12.267.027.44.04.52.04h.32c.187-.027.36-.053.52-.08l1.04-.12c1.147 0 1.72.667 1.72 2v.56c-.027.107-.04.2-.04.28V51c-.027.08-.04.453-.04 1.12 0 .187-.013.387-.04.6v.6a31.64 31.64 0 0 0-.04 1.6v6.48Zm1.84-19.12c0 .827-.573 1.493-1.72 2l-5.44 2.4a2.813 2.813 0 0 1-.36.12h-.36c-.96 0-1.44-.48-1.44-1.44 0-.48.373-.96 1.12-1.44l4.76-3a2.94 2.94 0 0 1 .72-.32c.293-.107.547-.16.76-.16 1.307 0 1.96.613 1.96 1.84Zm7.423 26.36c-.854 0-1.574-.28-2.16-.84-.587-.56-.88-1.267-.88-2.12 0-.827.293-1.52.88-2.08.586-.587 1.306-.88 2.16-.88.853 0 1.573.293 2.16.88.586.56.88 1.253.88 2.08 0 .853-.294 1.56-.88 2.12-.587.56-1.307.84-2.16.84Zm0-12.96c-.854 0-1.574-.28-2.16-.84a2.888 2.888 0 0 1-.88-2.12c0-.827.293-1.52.88-2.08.586-.587 1.306-.88 2.16-.88.853 0 1.573.293 2.16.88.586.56.88 1.253.88 2.08 0 .827-.294 1.533-.88 2.12-.587.56-1.307.84-2.16.84Zm22.217-7.64c.907 0 1.427.4 1.56 1.2 1.414-1.253 3.134-1.88 5.16-1.88 1.36 0 2.587.24 3.68.72a7.905 7.905 0 0 1 2.8 2.04c.8.88 1.4 1.96 1.8 3.24.427 1.253.64 2.667.64 4.24 0 1.6-.24 3.08-.72 4.44-.453 1.36-1.066 2.547-1.84 3.56a7.903 7.903 0 0 1-2.96 2.28c-1.146.507-2.426.76-3.84.76-1.84 0-3.4-.48-4.68-1.44v2.88c0 .293.014.507.04.64v-.04c.107.507.267.76.48.76.107 0 .294-.027.56-.08.187-.027.414-.053.68-.08.294-.027.427-.04.4-.04 1.2 0 1.8.587 1.8 1.76 0 1.2-.746 1.8-2.24 1.8a9.93 9.93 0 0 1-.8-.04 20.1 20.1 0 0 1-1-.12h.04c-.613-.08-1.426-.12-2.44-.12h-.76c-.24.027-.466.053-.68.08h-.16c-.026.027-.066.04-.12.04-.4.053-.76.093-1.08.12-.32.027-.56.04-.72.04-.613 0-1.133-.187-1.56-.56-.426-.347-.64-.787-.64-1.32 0-1.147.64-1.72 1.92-1.72h.4l.48.08c.347.107.614.16.8.16.107 0 .187-.107.24-.32.054-.293.094-.773.12-1.44.027-.64.054-1.493.08-2.56v-7.28c.027-2.453.04-4.893.04-7.32-.026-.827-.133-1.24-.32-1.24-.133 0-.333.04-.6.12a3.436 3.436 0 0 1-1.08.16c-1.36 0-2.04-.6-2.04-1.8 0-1.147.774-1.72 2.32-1.72h.48c.187 0 .347.013.48.04.107 0 .2.013.28.04h.28c.187.027.334.04.44.04h.72l.56-.08c.214-.027.4-.04.56-.04h.44Zm2.16 6.32a11.165 11.165 0 0 0-.28 1.68c-.053.56-.093 1.16-.12 1.8v.32c0 .107-.013.213-.04.32v.48c0 .827.027 1.533.08 2.12.08.587.187 1.067.32 1.44.107.347.28.667.52.96.267.293.56.56.88.8.374.24.787.44 1.24.6.454.133.934.2 1.44.2 1.627 0 2.88-.613 3.76-1.84.88-1.227 1.32-2.987 1.32-5.28 0-4.693-1.573-7.04-4.72-7.04-1.04 0-1.986.32-2.84.96a4.126 4.126 0 0 0-1.56 2.48Zm23.665 7.04v1.48c0 .347.013.587.04.72.08.8.2 1.2.36 1.2-.027 0 .04-.013.2-.04.16-.027.36-.067.6-.12l-.04.04c.08-.027.173-.053.28-.08.133-.027.293-.04.48-.04 1.386 0 2.08.587 2.08 1.76 0 .533-.227.973-.68 1.32-.427.347-.974.52-1.64.52a9.91 9.91 0 0 1-.8-.04c-.32-.027-.694-.067-1.12-.12-.4-.053-.747-.093-1.04-.12a4.211 4.211 0 0 0-.72-.08c-.294 0-.627.013-1 .04-.347.027-.72.067-1.12.12-.48.053-.894.093-1.24.12-.32.053-.587.08-.8.08-1.44 0-2.16-.613-2.16-1.84 0-1.173.653-1.76 1.96-1.76.053 0 .2.013.44.04.266.027.48.053.64.08.186.053.333.08.44.08h.24c.213 0 .36-.64.44-1.92V53.2c-.08-1.253-.24-1.88-.48-1.88-.054 0-.147.013-.28.04a6.141 6.141 0 0 0-.48.12 2.122 2.122 0 0 1-.48.12h-.4c-1.36 0-2.04-.587-2.04-1.76 0-1.2.773-1.8 2.32-1.8h.72c.186 0 .32.013.4.04.373.053.68.093.92.12.266.027.44.04.52.04h.32c.186-.027.36-.053.52-.08l1.04-.12c1.146 0 1.72.667 1.72 2v.56c-.027.107-.04.2-.04.28V51c-.027.08-.04.453-.04 1.12 0 .187-.014.387-.04.6v.6a31.64 31.64 0 0 0-.04 1.6v6.48Zm-2.64-14.32c-.774 0-1.427-.253-1.96-.76-.534-.507-.8-1.133-.8-1.88 0-.747.266-1.36.8-1.84.533-.507 1.186-.76 1.96-.76.773 0 1.426.253 1.96.76.56.48.84 1.093.84 1.84 0 .747-.28 1.373-.84 1.88-.534.507-1.187.76-1.96.76Zm26.183 9.24c0 .613-.014 1.093-.04 1.44-.027.347-.107.613-.24.8-.134.187-.334.307-.6.36-.24.027-.587.04-1.04.04h-12.04c-.107 0-.16.013-.16.04 0 1.787.52 3.24 1.56 4.36.986 1.147 2.226 1.72 3.72 1.72.986 0 1.88-.267 2.68-.8.8-.533 1.32-1.213 1.56-2.04l.36-1.08c.16-.4.386-.72.68-.96.32-.24.706-.36 1.16-.36 1.386 0 2.08.667 2.08 2 0 1.813-.934 3.413-2.8 4.8-1.787 1.333-3.8 2-6.04 2-2.88 0-5.16-.947-6.84-2.84-1.654-1.893-2.48-4.4-2.48-7.52 0-3.147.88-5.76 2.64-7.84 1.786-2.053 4.12-3.08 7-3.08 1.333 0 2.52.213 3.56.64a8.494 8.494 0 0 1 2.8 1.88c1.653 1.733 2.48 3.88 2.48 6.44Zm-4.36-.96c0-1.2-.44-2.24-1.32-3.12-.934-.88-1.974-1.32-3.12-1.32-1.174 0-2.32.48-3.44 1.44-1.014.933-1.52 1.933-1.52 3h9.4Zm16.172-8c1.014 0 1.934.16 2.76.48.854.293 1.6.707 2.24 1.24v-2.12c0-.48-.013-.853-.04-1.12 0-.293-.013-.507-.04-.64-.08-.347-.186-.573-.32-.68a4.33 4.33 0 0 1-.48.08h-.44.08c-.16.053-.333.093-.52.12h-.44c-1.386 0-2.08-.587-2.08-1.76 0-1.2.854-1.8 2.56-1.8h.28c.134 0 .267.013.4.04.08 0 .16.013.24.04h.24l1.2.12h.32l.56-.08c.214-.027.4-.04.56-.04.187-.027.36-.04.52-.04 1.147 0 1.72.693 1.72 2.08v.6c-.026.027-.04.293-.04.8 0 .133-.013.293-.04.48v.52c0 .213-.04 1.2-.12 2.96 0 .133-.013.28-.04.44v.4c-.026.427-.04.813-.04 1.16V55.2l.08 6.32c.027.853.054 1.52.08 2 .027.48.067.8.12.96 0 .16.094.24.28.24h.32l.32-.08h.24a.659.659 0 0 1 .2-.04.56.56 0 0 1 .24-.04h.28c1.36 0 2.04.587 2.04 1.76 0 1.227-.786 1.84-2.36 1.84-.133 0-.32-.013-.56-.04a5.16 5.16 0 0 1-.64-.04c-.106 0-.226-.013-.36-.04-.106 0-.226-.013-.36-.04a2.243 2.243 0 0 0-.44-.04c-.026 0-.053.013-.08.04h-.32c-.08 0-.186.013-.32.04h.08c-.32.08-.64.12-.96.12-.853 0-1.386-.413-1.6-1.24-1.333 1.147-3.08 1.72-5.24 1.72-2.826 0-5.053-1-6.68-3-1.68-1.947-2.52-4.507-2.52-7.68 0-1.547.214-2.973.64-4.28.454-1.307 1.067-2.427 1.84-3.36 1.654-1.973 3.867-2.96 6.64-2.96Zm4.76 13.84c.054-.427.094-.893.12-1.4.027-.533.04-1.12.04-1.76 0-.827-.026-1.507-.08-2.04-.026-.56-.066-.987-.12-1.28-.213-1.227-.68-2.12-1.4-2.68-.96-.747-1.986-1.12-3.08-1.12-1.573 0-2.8.627-3.68 1.88-.88 1.227-1.32 2.92-1.32 5.08 0 2.267.454 4.04 1.36 5.32.934 1.253 2.2 1.88 3.8 1.88 1.2 0 2.187-.347 2.96-1.04.8-.72 1.267-1.667 1.4-2.84Zm15.425-13.16c.88 0 1.4.347 1.56 1.04 1.306-1.147 2.866-1.72 4.68-1.72.986 0 1.88.147 2.68.44a5.76 5.76 0 0 1 2.08 1.2 5.186 5.186 0 0 1 1.36 1.84c.32.72.48 1.52.48 2.4 0 1.28-.334 2.32-1 3.12-.667.773-1.56 1.16-2.68 1.16-.774 0-1.427-.227-1.96-.68-.507-.453-.76-1.013-.76-1.68 0-.533.213-1.013.64-1.44.453-.427.96-.64 1.52-.64.053 0 .04-.013-.04-.04-.054-.027-.014-.013.12.04v-.2c0-.587-.267-1.08-.8-1.48-.507-.4-1.147-.6-1.92-.6-1.68 0-2.8.773-3.36 2.32-.374 1.067-.56 2.64-.56 4.72v4.36c0 .453.013.733.04.84.133 1.173.306 1.76.52 1.76h.44l.4-.08c.346-.107.653-.16.92-.16 1.226 0 1.84.573 1.84 1.72 0 1.253-.734 1.88-2.2 1.88h-.12a9.91 9.91 0 0 1-.8-.04c-.294-.027-.64-.067-1.04-.12-.774-.08-1.32-.12-1.64-.12-.507 0-.947.013-1.32.04-.374 0-.707.013-1 .04l-2.16.2c-1.467 0-2.2-.627-2.2-1.88 0-1.12.693-1.68 2.08-1.68h.32a.583.583 0 0 1 .36.04l.48.12h.32c.026.027.066.04.12.04h.04c.24 0 .373-.4.4-1.2 0-.32.013-.64.04-.96.026-.32.04-.64.04-.96l-.12-8.6c-.054-.987-.187-1.547-.4-1.68-.054 0-.187.013-.4.04-.214.027-.36.04-.44.04h.08c-.32.08-.654.12-1 .12-1.254 0-1.88-.587-1.88-1.76 0-1.227.746-1.84 2.24-1.84.053.027.213.053.48.08.266 0 .506.013.72.04.213.027.413.053.6.08H232.515c.106 0 .226-.013.36-.04h.12a.444.444 0 0 1 .2-.04c.266-.053.546-.08.84-.08Zm31.248 20.44c-1.973 0-3.307-.667-4-2-1.413 1.44-3.373 2.16-5.88 2.16-2.267 0-4.067-.547-5.4-1.64-1.333-1.12-2-2.6-2-4.44 0-1.12.267-2.107.8-2.96a6.334 6.334 0 0 1 2.24-2.12c.72-.4 1.347-.667 1.88-.8.507-.133 1.533-.293 3.08-.48 2.027-.213 3.32-.493 3.88-.84.453-.32.68-.92.68-1.8 0-.853-.307-1.533-.92-2.04-.587-.507-1.427-.76-2.52-.76a4.9 4.9 0 0 0-2.84.88v-.04c-.187.187-.28.293-.28.32h.04c.56.48.84 1.053.84 1.72s-.253 1.213-.76 1.64c-.48.427-1.093.64-1.84.64-.853 0-1.56-.267-2.12-.8-.56-.56-.84-1.253-.84-2.08 0-1.6.787-2.947 2.36-4.04 1.493-1.093 3.32-1.64 5.48-1.64 5.04 0 7.56 2.387 7.56 7.16v9c.027.347.053.587.08.72.133.587.347.88.64.88.453 0 .68-.627.68-1.88v-1.88c0-1.147.6-1.72 1.8-1.72 1.28 0 1.92.773 1.92 2.32v.2l-.04 2.16c-.053 2.773-1.56 4.16-4.52 4.16Zm-4.8-9.56c-.16.053-.32.12-.48.2a4.972 4.972 0 0 1-.48.16c-.72.24-1.853.427-3.4.56-2.507.24-3.76 1.133-3.76 2.68 0 .773.28 1.4.84 1.88.587.453 1.387.68 2.4.68 1.52 0 2.693-.413 3.52-1.24.853-.827 1.293-1.96 1.32-3.4l.04-1.52Zm14.458 9.72h-.76c-.773 0-1.426-.267-1.96-.8-.506-.533-.76-1.2-.76-2 0-.907.32-1.653.96-2.24.64-.587 1.44-.88 2.4-.88 1.12 0 2.014.413 2.68 1.24.694.8 1.04 1.853 1.04 3.16 0 1.04-.213 2.08-.64 3.12-.4 1.04-.986 2.107-1.76 3.2-.773 1.067-1.52 1.6-2.24 1.6-.933 0-1.4-.44-1.4-1.32 0-.267.134-.6.4-1 1.36-1.76 2.04-3.08 2.04-3.96v-.12ZM23.725 88.04c.907 0 1.427.4 1.56 1.2 1.413-1.253 3.133-1.88 5.16-1.88 1.36 0 2.587.24 3.68.72a7.913 7.913 0 0 1 2.8 2.04c.8.88 1.4 1.96 1.8 3.24.427 1.253.64 2.667.64 4.24 0 1.6-.24 3.08-.72 4.44-.453 1.36-1.067 2.547-1.84 3.56a7.917 7.917 0 0 1-2.96 2.28c-1.147.507-2.427.76-3.84.76-1.84 0-3.4-.48-4.68-1.44v2.88c0 .293.013.507.04.64v-.04c.107.507.267.76.48.76.107 0 .293-.027.56-.08.187-.027.413-.053.68-.08.293-.027.427-.04.4-.04 1.2 0 1.8.587 1.8 1.76 0 1.2-.747 1.8-2.24 1.8-.213 0-.48-.013-.8-.04a20.69 20.69 0 0 1-1-.12h.04c-.613-.08-1.427-.12-2.44-.12h-.76c-.24.027-.467.053-.68.08h-.16c-.027.027-.067.04-.12.04-.4.053-.76.093-1.08.12-.32.027-.56.04-.72.04-.613 0-1.133-.187-1.56-.56-.427-.347-.64-.787-.64-1.32 0-1.147.64-1.72 1.92-1.72h.4l.48.08c.347.107.613.16.8.16.107 0 .187-.107.24-.32.053-.293.093-.773.12-1.44.027-.64.053-1.493.08-2.56v-7.28c.027-2.453.04-4.893.04-7.32-.027-.827-.133-1.24-.32-1.24-.133 0-.333.04-.6.12a3.442 3.442 0 0 1-1.08.16c-1.36 0-2.04-.6-2.04-1.8 0-1.147.773-1.72 2.32-1.72h.48c.187 0 .347.013.48.04.107 0 .2.013.28.04h.28c.187.027.333.04.44.04h.72l.56-.08c.213-.027.4-.04.56-.04h.44Zm2.16 6.32a11.04 11.04 0 0 0-.28 1.68c-.053.56-.093 1.16-.12 1.8v.32c0 .107-.013.213-.04.32v.48c0 .827.027 1.533.08 2.12.08.587.187 1.067.32 1.44.107.347.28.667.52.96.267.293.56.56.88.8.373.24.787.44 1.24.6.453.133.933.2 1.44.2 1.627 0 2.88-.613 3.76-1.84.88-1.227 1.32-2.987 1.32-5.28 0-4.693-1.573-7.04-4.72-7.04-1.04 0-1.987.32-2.84.96a4.12 4.12 0 0 0-1.56 2.48Zm33.304 14.12c-1.973 0-3.306-.667-4-2-1.413 1.44-3.373 2.16-5.88 2.16-2.266 0-4.066-.547-5.4-1.64-1.333-1.12-2-2.6-2-4.44 0-1.12.267-2.107.8-2.96a6.33 6.33 0 0 1 2.24-2.12c.72-.4 1.347-.667 1.88-.8.507-.133 1.534-.293 3.08-.48 2.027-.213 3.32-.493 3.88-.84.454-.32.68-.92.68-1.8 0-.853-.306-1.533-.92-2.04-.586-.507-1.426-.76-2.52-.76-1.04 0-1.986.293-2.84.88v-.04c-.186.187-.28.293-.28.32h.04c.56.48.84 1.053.84 1.72s-.253 1.213-.76 1.64c-.48.427-1.093.64-1.84.64-.853 0-1.56-.267-2.12-.8-.56-.56-.84-1.253-.84-2.08 0-1.6.787-2.947 2.36-4.04 1.494-1.093 3.32-1.64 5.48-1.64 5.04 0 7.56 2.387 7.56 7.16v9c.027.347.054.587.08.72.134.587.347.88.64.88.454 0 .68-.627.68-1.88v-1.88c0-1.147.6-1.72 1.8-1.72 1.28 0 1.92.773 1.92 2.32v.2l-.04 2.16c-.053 2.773-1.56 4.16-4.52 4.16Zm-4.8-9.56c-.16.053-.32.12-.48.2a5.047 5.047 0 0 1-.48.16c-.72.24-1.853.427-3.4.56-2.506.24-3.76 1.133-3.76 2.68 0 .773.28 1.4.84 1.88.587.453 1.387.68 2.4.68 1.52 0 2.694-.413 3.52-1.24.854-.827 1.294-1.96 1.32-3.4l.04-1.52Zm15.898-10.88c.907 0 1.427.4 1.56 1.2 1.414-1.253 3.134-1.88 5.16-1.88 1.36 0 2.587.24 3.68.72a7.913 7.913 0 0 1 2.8 2.04c.8.88 1.4 1.96 1.8 3.24.427 1.253.64 2.667.64 4.24 0 1.6-.24 3.08-.72 4.44-.453 1.36-1.066 2.547-1.84 3.56a7.917 7.917 0 0 1-2.96 2.28c-1.146.507-2.426.76-3.84.76-1.84 0-3.4-.48-4.68-1.44v2.88c0 .293.014.507.04.64v-.04c.107.507.267.76.48.76.107 0 .294-.027.56-.08.187-.027.414-.053.68-.08.294-.027.427-.04.4-.04 1.2 0 1.8.587 1.8 1.76 0 1.2-.746 1.8-2.24 1.8-.213 0-.48-.013-.8-.04a20.69 20.69 0 0 1-1-.12h.04c-.613-.08-1.426-.12-2.44-.12h-.76c-.24.027-.466.053-.68.08h-.16c-.026.027-.066.04-.12.04-.4.053-.76.093-1.08.12-.32.027-.56.04-.72.04-.613 0-1.133-.187-1.56-.56-.426-.347-.64-.787-.64-1.32 0-1.147.64-1.72 1.92-1.72h.4l.48.08c.347.107.614.16.8.16.107 0 .187-.107.24-.32.054-.293.094-.773.12-1.44.027-.64.054-1.493.08-2.56v-7.28c.027-2.453.04-4.893.04-7.32-.026-.827-.133-1.24-.32-1.24-.133 0-.333.04-.6.12a3.442 3.442 0 0 1-1.08.16c-1.36 0-2.04-.6-2.04-1.8 0-1.147.774-1.72 2.32-1.72h.48c.187 0 .347.013.48.04.107 0 .2.013.28.04h.28c.187.027.334.04.44.04h.72l.56-.08c.214-.027.4-.04.56-.04h.44Zm2.16 6.32a11.04 11.04 0 0 0-.28 1.68c-.053.56-.093 1.16-.12 1.8v.32c0 .107-.013.213-.04.32v.48c0 .827.027 1.533.08 2.12.08.587.187 1.067.32 1.44.107.347.28.667.52.96.267.293.56.56.88.8.374.24.787.44 1.24.6.454.133.934.2 1.44.2 1.627 0 2.88-.613 3.76-1.84.88-1.227 1.32-2.987 1.32-5.28 0-4.693-1.573-7.04-4.72-7.04-1.04 0-1.986.32-2.84.96a4.12 4.12 0 0 0-1.56 2.48Zm34.825 1.96c0 .613-.013 1.093-.04 1.44-.027.347-.107.613-.24.8-.133.187-.333.307-.6.36-.24.027-.587.04-1.04.04h-12.04c-.107 0-.16.013-.16.04 0 1.787.52 3.24 1.56 4.36.986 1.147 2.227 1.72 3.72 1.72.986 0 1.88-.267 2.68-.8.8-.533 1.32-1.213 1.56-2.04l.36-1.08c.16-.4.387-.72.68-.96.32-.24.707-.36 1.16-.36 1.387 0 2.08.667 2.08 2 0 1.813-.933 3.413-2.8 4.8-1.787 1.333-3.8 2-6.04 2-2.88 0-5.16-.947-6.84-2.84-1.654-1.893-2.48-4.4-2.48-7.52 0-3.147.88-5.76 2.64-7.84 1.787-2.053 4.12-3.08 7-3.08 1.333 0 2.52.213 3.56.64a8.494 8.494 0 0 1 2.8 1.88c1.653 1.733 2.48 3.88 2.48 6.44Zm-4.36-.96c0-1.2-.44-2.24-1.32-3.12-.933-.88-1.974-1.32-3.12-1.32-1.173 0-2.32.48-3.44 1.44-1.013.933-1.52 1.933-1.52 3h9.4Zm14.133 8.04c.026.933.146 1.4.36 1.4a.65.65 0 0 0 .2-.04h.16c.08-.027.173-.053.28-.08h.16a.348.348 0 0 1 .16-.04h.08c0-.027.026-.04.08-.04a.44.44 0 0 1 .2-.04h.24c1.253 0 1.88.6 1.88 1.8 0 1.2-.734 1.8-2.2 1.8-.214 0-.494-.013-.84-.04-.32-.027-.707-.067-1.16-.12a25.794 25.794 0 0 0-1.16-.12 9.793 9.793 0 0 0-.8-.04c-.187 0-.427.013-.72.04-.294.027-.64.067-1.04.12-.374.053-.72.093-1.04.12-.32.027-.587.04-.8.04h-.2c-1.494 0-2.24-.64-2.24-1.92 0-1.12.653-1.68 1.96-1.68h.4c.106.027.213.04.32.04.32.053.546.093.68.12.133.027.226.04.28.04.106 0 .186-.067.24-.2.053-.187.093-.52.12-1 .026-.48.053-1.12.08-1.92v-1.32c.026-.453.04-.893.04-1.32l.12-5.88V91.6c0-.587-.014-1.2-.04-1.84V86.4l-.12-1.52a1.63 1.63 0 0 0-.2-.24c-.08-.08-.16-.12-.24-.12-.027 0-.347.053-.96.16-.134.027-.254.04-.36.04h-.32c-1.307 0-1.96-.573-1.96-1.72 0-1.2.72-1.8 2.16-1.8h.44c.186 0 .32.013.4.04l.8.12c.053 0 .106.013.16.04h.16c.133.027.253.04.36.04h.72c.213-.027.426-.067.64-.12.24-.053.453-.093.64-.12.213-.027.426-.04.64-.04.986 0 1.48.547 1.48 1.64v.36c.026.08.013.173-.04.28-.16 1.973-.24 4.707-.24 8.2l.04 11.76Zm24.583 5.24c-2.853 0-5.133-.973-6.84-2.92-1.706-1.947-2.56-4.52-2.56-7.72 0-3.227.854-5.787 2.56-7.68 1.707-1.973 4.027-2.96 6.96-2.96 2.934 0 5.267.96 7 2.88 1.68 1.893 2.52 4.44 2.52 7.64 0 3.253-.866 5.84-2.6 7.76-1.733 2-4.08 3-7.04 3Zm.2-17.72c-1.6 0-2.853.573-3.76 1.72-.88 1.147-1.36 2.787-1.44 4.92V98c0 2.213.44 3.947 1.32 5.2.88 1.253 2.12 1.88 3.72 1.88 1.627 0 2.907-.613 3.84-1.84.96-1.253 1.44-3.013 1.44-5.28 0-4.693-1.706-7.04-5.12-7.04Zm32.676 8.88c.054-1.387.734-2.08 2.04-2.08 1.307 0 1.96.76 1.96 2.28 0 1.44-.106 2.667-.32 3.68-.213.987-.506 1.787-.88 2.4-1.066 1.6-2.813 2.4-5.24 2.4-1.12 0-2.093-.187-2.92-.56a4.704 4.704 0 0 1-1.92-1.6c-.72-1.093-1.08-2.787-1.08-5.08v-9.08c0-.187-.026-.28-.08-.28h-1.2c-.586 0-1.08-.173-1.48-.52a1.853 1.853 0 0 1-.56-1.36c0-.48.187-.907.56-1.28.4-.4.854-.6 1.36-.6h1.48v-4.08c0-1.333.707-2 2.12-2 1.334 0 2 .667 2 2v4.04c0 .027.014.04.04.04h4.12c1.387 0 2.08.613 2.08 1.84 0 1.28-.72 1.92-2.16 1.92h-4.2c.08.053.12.147.12.28v9.32c0 2.293.654 3.44 1.96 3.44 1.414 0 2.12-.893 2.12-2.68l.08-2.44Zm12.936 1.6v1.48c0 .347.013.587.04.72.08.8.2 1.2.36 1.2-.027 0 .04-.013.2-.04.16-.027.36-.067.6-.12l-.04.04c.08-.027.173-.053.28-.08.133-.027.293-.04.48-.04 1.387 0 2.08.587 2.08 1.76 0 .533-.227.973-.68 1.32-.427.347-.973.52-1.64.52-.213 0-.48-.013-.8-.04a29.11 29.11 0 0 1-1.12-.12c-.4-.053-.747-.093-1.04-.12a4.221 4.221 0 0 0-.72-.08c-.293 0-.627.013-1 .04-.347.027-.72.067-1.12.12-.48.053-.893.093-1.24.12-.32.053-.587.08-.8.08-1.44 0-2.16-.613-2.16-1.84 0-1.173.653-1.76 1.96-1.76.053 0 .2.013.44.04.267.027.48.053.64.08.187.053.333.08.44.08h.24c.213 0 .36-.64.44-1.92V93.2c-.08-1.253-.24-1.88-.48-1.88-.053 0-.147.013-.28.04a6.372 6.372 0 0 0-.48.12 2.095 2.095 0 0 1-.48.12h-.4c-1.36 0-2.04-.587-2.04-1.76 0-1.2.773-1.8 2.32-1.8h.72c.187 0 .32.013.4.04.373.053.68.093.92.12.267.027.44.04.52.04h.32c.187-.027.36-.053.52-.08l1.04-.12c1.147 0 1.72.667 1.72 2v.56c-.027.107-.04.2-.04.28V91c-.027.08-.04.453-.04 1.12 0 .187-.013.387-.04.6v.6a31.64 31.64 0 0 0-.04 1.6v6.48Zm-2.64-14.32c-.773 0-1.427-.253-1.96-.76a2.49 2.49 0 0 1-.8-1.88c0-.747.267-1.36.8-1.84.533-.507 1.187-.76 1.96-.76.773 0 1.427.253 1.96.76.56.48.84 1.093.84 1.84 0 .747-.28 1.373-.84 1.88-.533.507-1.187.76-1.96.76Zm6.155 23.48c0 .24-.04.467-.12.68-.08.24-.187.467-.32.68.187.107.387.187.6.24.213.08.413.12.6.12 1.2 0 2.053-.373 2.56-1.12.533-.747.8-1.947.8-3.6V95.64c0-2.213-.053-3.533-.16-3.96-.027-.267-.16-.4-.4-.4-.08 0-.2.013-.36.04-.133.027-.307.067-.52.12v-.04a2.12 2.12 0 0 1-.44.12c-.133.027-.267.04-.4.04-1.253 0-1.88-.587-1.88-1.76s.747-1.76 2.24-1.76h.6c.187 0 .347.013.48.04.8.08 1.333.12 1.6.12h.32l.56-.08c.187-.027.413-.053.68-.08.293-.027.413-.04.36-.04 1.147 0 1.72.587 1.72 1.76v.28c0 .133-.013.293-.04.48-.027.24-.04.453-.04.64v.48c-.027.213-.04.547-.04 1 0 .427-.013.987-.04 1.68a4.2 4.2 0 0 1-.04.6v.52c-.027.533-.04 1.013-.04 1.44v9.68c0 .8-.027 1.48-.08 2.04a15.75 15.75 0 0 1-.12 1.44 8.642 8.642 0 0 1-.56 1.72 6.31 6.31 0 0 1-.96 1.56c-1.333 1.573-3.187 2.36-5.56 2.36-.853 0-1.64-.12-2.36-.36a5.879 5.879 0 0 1-1.88-.92c-.533-.4-.947-.88-1.24-1.44a3.356 3.356 0 0 1-.48-1.76c0-.773.253-1.427.76-1.96.48-.533 1.093-.8 1.84-.8.64 0 1.2.2 1.68.6.453.427.68.933.68 1.52Zm5.72-23.48c-.773 0-1.427-.253-1.96-.76a2.49 2.49 0 0 1-.8-1.88c0-.747.267-1.36.8-1.84.533-.507 1.187-.76 1.96-.76.773 0 1.427.267 1.96.8.56.507.84 1.107.84 1.8 0 .747-.28 1.373-.84 1.88-.533.507-1.187.76-1.96.76Zm25.441 9.24c0 .613-.014 1.093-.04 1.44-.027.347-.107.613-.24.8-.134.187-.334.307-.6.36-.24.027-.587.04-1.04.04h-12.04c-.107 0-.16.013-.16.04 0 1.787.52 3.24 1.56 4.36.986 1.147 2.226 1.72 3.72 1.72a4.73 4.73 0 0 0 2.68-.8c.8-.533 1.32-1.213 1.56-2.04l.36-1.08c.16-.4.386-.72.68-.96.32-.24.706-.36 1.16-.36 1.386 0 2.08.667 2.08 2 0 1.813-.934 3.413-2.8 4.8-1.787 1.333-3.8 2-6.04 2-2.88 0-5.16-.947-6.84-2.84-1.654-1.893-2.48-4.4-2.48-7.52 0-3.147.88-5.76 2.64-7.84 1.786-2.053 4.12-3.08 7-3.08 1.333 0 2.52.213 3.56.64a8.494 8.494 0 0 1 2.8 1.88c1.653 1.733 2.48 3.88 2.48 6.44Zm-4.36-.96c0-1.2-.44-2.24-1.32-3.12-.934-.88-1.974-1.32-3.12-1.32-1.174 0-2.32.48-3.44 1.44-1.014.933-1.52 1.933-1.52 3h9.4Zm12.372-7.32c.88 0 1.4.347 1.56 1.04 1.307-1.147 2.867-1.72 4.68-1.72.987 0 1.88.147 2.68.44a5.75 5.75 0 0 1 2.08 1.2 5.174 5.174 0 0 1 1.36 1.84c.32.72.48 1.52.48 2.4 0 1.28-.333 2.32-1 3.12-.666.773-1.56 1.16-2.68 1.16-.773 0-1.426-.227-1.96-.68-.506-.453-.76-1.013-.76-1.68 0-.533.214-1.013.64-1.44.454-.427.96-.64 1.52-.64.054 0 .04-.013-.04-.04-.053-.027-.013-.013.12.04v-.2c0-.587-.266-1.08-.8-1.48-.506-.4-1.146-.6-1.92-.6-1.68 0-2.8.773-3.36 2.32-.373 1.067-.56 2.64-.56 4.72v4.36c0 .453.014.733.04.84.134 1.173.307 1.76.52 1.76h.44l.4-.08c.347-.107.654-.16.92-.16 1.227 0 1.84.573 1.84 1.72 0 1.253-.733 1.88-2.2 1.88h-.12c-.213 0-.48-.013-.8-.04-.293-.027-.64-.067-1.04-.12-.773-.08-1.32-.12-1.64-.12-.506 0-.946.013-1.32.04-.373 0-.706.013-1 .04l-2.16.2c-1.466 0-2.2-.627-2.2-1.88 0-1.12.694-1.68 2.08-1.68h.32a.582.582 0 0 1 .36.04l.48.12h.32c.027.027.067.04.12.04h.04c.24 0 .374-.4.4-1.2 0-.32.014-.64.04-.96.027-.32.04-.64.04-.96l-.12-8.6c-.053-.987-.186-1.547-.4-1.68-.053 0-.186.013-.4.04a4.24 4.24 0 0 1-.44.04h.08c-.32.08-.653.12-1 .12-1.253 0-1.88-.587-1.88-1.76 0-1.227.747-1.84 2.24-1.84.054.027.214.053.48.08.267 0 .507.013.72.04.214.027.414.053.6.08H228.608c.107 0 .227-.013.36-.04h.12a.447.447 0 0 1 .2-.04c.267-.053.547-.08.84-.08Zm31.249 20.44c-1.973 0-3.307-.667-4-2-1.413 1.44-3.373 2.16-5.88 2.16-2.267 0-4.067-.547-5.4-1.64-1.333-1.12-2-2.6-2-4.44 0-1.12.267-2.107.8-2.96a6.334 6.334 0 0 1 2.24-2.12c.72-.4 1.347-.667 1.88-.8.507-.133 1.533-.293 3.08-.48 2.027-.213 3.32-.493 3.88-.84.453-.32.68-.92.68-1.8 0-.853-.307-1.533-.92-2.04-.587-.507-1.427-.76-2.52-.76a4.9 4.9 0 0 0-2.84.88v-.04c-.187.187-.28.293-.28.32h.04c.56.48.84 1.053.84 1.72s-.253 1.213-.76 1.64c-.48.427-1.093.64-1.84.64-.853 0-1.56-.267-2.12-.8-.56-.56-.84-1.253-.84-2.08 0-1.6.787-2.947 2.36-4.04 1.493-1.093 3.32-1.64 5.48-1.64 5.04 0 7.56 2.387 7.56 7.16v9c.027.347.053.587.08.72.133.587.347.88.64.88.453 0 .68-.627.68-1.88v-1.88c0-1.147.6-1.72 1.8-1.72 1.28 0 1.92.773 1.92 2.32v.2l-.04 2.16c-.053 2.773-1.56 4.16-4.52 4.16Zm-4.8-9.56c-.16.053-.32.12-.48.2a4.972 4.972 0 0 1-.48.16c-.72.24-1.853.427-3.4.56-2.507.24-3.76 1.133-3.76 2.68 0 .773.28 1.4.84 1.88.587.453 1.387.68 2.4.68 1.52 0 2.693-.413 3.52-1.24.853-.827 1.293-1.96 1.32-3.4l.04-1.52Zm-216.02 49.56c-1.974 0-3.307-.667-4-2-1.414 1.44-3.374 2.16-5.88 2.16-2.267 0-4.067-.547-5.4-1.64-1.334-1.12-2-2.6-2-4.44 0-1.12.266-2.107.8-2.96a6.328 6.328 0 0 1 2.24-2.12c.72-.4 1.346-.667 1.88-.8.506-.133 1.533-.293 3.08-.48 2.026-.213 3.32-.493 3.88-.84.453-.32.68-.92.68-1.8 0-.853-.307-1.533-.92-2.04-.587-.507-1.427-.76-2.52-.76a4.9 4.9 0 0 0-2.84.88v-.04c-.187.187-.28.293-.28.32h.04c.56.48.84 1.053.84 1.72s-.254 1.213-.76 1.64c-.48.427-1.094.64-1.84.64-.854 0-1.56-.267-2.12-.8-.56-.56-.84-1.253-.84-2.08 0-1.6.786-2.947 2.36-4.04 1.493-1.093 3.32-1.64 5.48-1.64 5.04 0 7.56 2.387 7.56 7.16v9c.026.347.053.587.08.72.133.587.346.88.64.88.453 0 .68-.627.68-1.88v-1.88c0-1.147.6-1.72 1.8-1.72 1.28 0 1.92.773 1.92 2.32v.2l-.04 2.16c-.054 2.773-1.56 4.16-4.52 4.16Zm-4.8-9.56c-.16.053-.32.12-.48.2a5.047 5.047 0 0 1-.48.16c-.72.24-1.854.427-3.4.56-2.507.24-3.76 1.133-3.76 2.68 0 .773.28 1.4.84 1.88.586.453 1.386.68 2.4.68 1.52 0 2.693-.413 3.52-1.24.853-.827 1.293-1.96 1.32-3.4l.04-1.52Zm15.818-10.88c.986 0 1.56.413 1.72 1.24 1.44-1.28 3.253-1.92 5.44-1.92 1.493 0 2.893.373 4.2 1.12h-.04c1.386.8 2.306 1.747 2.76 2.84.4.933.6 2.12.6 3.56v9.08c.026.427.12.693.28.8h.52a7.49 7.49 0 0 0 .52-.08c.133-.027.253-.04.36-.04.106-.027.24-.04.4-.04.48 0 .906.173 1.28.52.373.32.56.707.56 1.16 0 .533-.214.987-.64 1.36-.427.347-.947.52-1.56.52-.134 0-.347-.013-.64-.04a4.73 4.73 0 0 1-.84-.08c-.4-.053-.84-.093-1.32-.12-.454-.053-.854-.08-1.2-.08a9.17 9.17 0 0 0-.84.04c-.267 0-.507.013-.72.04-.587.08-1.067.133-1.44.16-.374.053-.587.08-.64.08-1.44 0-2.16-.627-2.16-1.88 0-1.12.64-1.68 1.92-1.68.106.027.213.04.32.04.106 0 .2.013.28.04h.32c.133.027.24.053.32.08h.2c.08.027.133.04.16.04.186 0 .293-.507.32-1.52 0-.32.013-.64.04-.96.026-.347.04-.68.04-1l.04-2.28v-2.88c0-1.2-.067-2.093-.2-2.68-.08-.4-.227-.76-.44-1.08a2.892 2.892 0 0 0-.76-.84v.04c-.774-.533-1.587-.8-2.44-.8-1.787 0-3.067.627-3.84 1.88-.534.907-.8 2.507-.8 4.8v5.04c0 .907.026 1.52.08 1.84.08.32.2.48.36.48.026 0 .106-.013.24-.04.133-.027.28-.053.44-.08.16-.053.306-.093.44-.12.16-.027.346-.04.56-.04 1.226 0 1.84.6 1.84 1.8 0 1.2-.72 1.8-2.16 1.8-.134 0-.4-.027-.8-.08-.374-.053-.8-.107-1.28-.16a11.908 11.908 0 0 0-2.64-.08c-.32.027-.707.067-1.16.12l-.88.08c-.24.053-.467.08-.68.08-.214.027-.347.04-.4.04-1.494 0-2.24-.613-2.24-1.84 0-1.147.613-1.72 1.84-1.72.133 0 .24.013.32.04.106 0 .213.013.32.04.346.08.706.12 1.08.12.32 0 .493-.547.52-1.64 0-.693.013-1.387.04-2.08.026-.72.04-1.427.04-2.12v-4.6l-.08-1.32c-.054-.587-.107-1-.16-1.24-.054-.267-.147-.427-.28-.48-.054.027-.174.053-.36.08a1.88 1.88 0 0 0-.44.04c-.16.027-.307.053-.44.08h-.4c-1.334 0-2-.587-2-1.76s.773-1.76 2.32-1.76h.24c.08-.027.173-.013.28.04l1.32.16h.44c.186-.027.36-.053.52-.08.213-.027.386-.04.52-.04.16-.027.346-.04.56-.04Zm30.468 11.76c.054-1.387.734-2.08 2.04-2.08 1.307 0 1.96.76 1.96 2.28 0 1.44-.106 2.667-.32 3.68-.213.987-.506 1.787-.88 2.4-1.066 1.6-2.813 2.4-5.24 2.4-1.12 0-2.093-.187-2.92-.56a4.704 4.704 0 0 1-1.92-1.6c-.72-1.093-1.08-2.787-1.08-5.08v-9.08c0-.187-.026-.28-.08-.28h-1.2c-.586 0-1.08-.173-1.48-.52a1.852 1.852 0 0 1-.56-1.36c0-.48.187-.907.56-1.28.4-.4.854-.6 1.36-.6h1.48v-4.08c0-1.333.707-2 2.12-2 1.334 0 2 .667 2 2v4.04c0 .027.014.04.04.04h4.12c1.387 0 2.08.613 2.08 1.84 0 1.28-.72 1.92-2.16 1.92h-4.2c.08.053.12.147.12.28v9.32c0 2.293.654 3.44 1.96 3.44 1.414 0 2.12-.893 2.12-2.68l.08-2.44Zm24.096-3.48c0 .613-.013 1.093-.04 1.44-.027.347-.107.613-.24.8-.133.187-.333.307-.6.36-.24.027-.587.04-1.04.04h-12.04c-.107 0-.16.013-.16.04 0 1.787.52 3.24 1.56 4.36.987 1.147 2.227 1.72 3.72 1.72.987 0 1.88-.267 2.68-.8.8-.533 1.32-1.213 1.56-2.04l.36-1.08c.16-.4.387-.72.68-.96.32-.24.707-.36 1.16-.36 1.387 0 2.08.667 2.08 2 0 1.813-.933 3.413-2.8 4.8-1.787 1.333-3.8 2-6.04 2-2.88 0-5.16-.947-6.84-2.84-1.653-1.893-2.48-4.4-2.48-7.52 0-3.147.88-5.76 2.64-7.84 1.787-2.053 4.12-3.08 7-3.08 1.333 0 2.52.213 3.56.64a8.494 8.494 0 0 1 2.8 1.88c1.653 1.733 2.48 3.88 2.48 6.44Zm-4.36-.96c0-1.2-.44-2.24-1.32-3.12-.933-.88-1.973-1.32-3.12-1.32-1.173 0-2.32.48-3.44 1.44-1.013.933-1.52 1.933-1.52 3h9.4Zm15.613-8c1.467 0 2.707.293 3.72.88.24-.747.827-1.12 1.76-1.12 1.253 0 1.88.587 1.88 1.76a.35.35 0 0 1-.04.16v.28c0 .107-.013.24-.04.4v.4a6.93 6.93 0 0 0-.12.72c-.027.24-.04.467-.04.68 0 .347.04.76.12 1.24.053.293.093.56.12.8.027.213.04.413.04.6 0 1.333-.627 2-1.88 2-1.227 0-1.867-.573-1.92-1.72l-.04-1.28c-.027-.613-.4-1.133-1.12-1.56-.693-.453-1.533-.68-2.52-.68-.96 0-1.773.24-2.44.72s-1 1.093-1 1.84c0 .64.253 1.16.76 1.56.507.373 1.173.64 2 .8.373.053.733.107 1.08.16l1.12.16c4.693.64 7.04 2.587 7.04 5.84 0 1.947-.787 3.573-2.36 4.88-1.547 1.173-3.493 1.76-5.84 1.76-1.76 0-3.36-.4-4.8-1.2-.133 1.013-.773 1.52-1.92 1.52-1.36 0-2.04-.693-2.04-2.08.053-.4.093-.72.12-.96.053-.24.093-.453.12-.64.027-.187.04-.373.04-.56.027-.213.04-.507.04-.88 0-.293-.027-.6-.08-.92a9.592 9.592 0 0 0-.12-.96 4.793 4.793 0 0 1-.12-1.08c0-1.227.627-1.84 1.88-1.84.853 0 1.373.227 1.56.68.187.4.293 1.133.32 2.2.027.933.52 1.693 1.48 2.28.987.587 2.267.88 3.84.88 1.04 0 1.893-.253 2.56-.76.693-.533 1.04-1.213 1.04-2.04 0-1.413-1.173-2.24-3.52-2.48a35.417 35.417 0 0 1-3.68-.6c-1.067-.267-1.96-.613-2.68-1.04-.72-.453-1.267-1.027-1.64-1.72-.373-.693-.56-1.56-.56-2.6 0-.96.187-1.84.56-2.64.4-.8.947-1.48 1.64-2.04s1.52-1 2.48-1.32c.96-.32 2.027-.48 3.2-.48Zm30.247 0c1.014 0 1.934.16 2.76.48.854.293 1.6.707 2.24 1.24v-2.12c0-.48-.013-.853-.04-1.12 0-.293-.013-.507-.04-.64-.08-.347-.186-.573-.32-.68a4.33 4.33 0 0 1-.48.08h-.44.08c-.16.053-.333.093-.52.12h-.44c-1.386 0-2.08-.587-2.08-1.76 0-1.2.854-1.8 2.56-1.8h.28c.134 0 .267.013.4.04.08 0 .16.013.24.04h.24l1.2.12h.32l.56-.08c.214-.027.4-.04.56-.04.187-.027.36-.04.52-.04 1.147 0 1.72.693 1.72 2.08v.6c-.026.027-.04.293-.04.8 0 .133-.013.293-.04.48v.52c0 .213-.04 1.2-.12 2.96 0 .133-.013.28-.04.44v.4c-.026.427-.04.813-.04 1.16V135.2l.08 6.32c.027.853.054 1.52.08 2 .027.48.067.8.12.96 0 .16.094.24.28.24h.32l.32-.08h.24a.65.65 0 0 1 .2-.04.556.556 0 0 1 .24-.04h.28c1.36 0 2.04.587 2.04 1.76 0 1.227-.786 1.84-2.36 1.84a5.33 5.33 0 0 1-.56-.04c-.213 0-.426-.013-.64-.04-.106 0-.226-.013-.36-.04-.106 0-.226-.013-.36-.04a2.22 2.22 0 0 0-.44-.04c-.026 0-.053.013-.08.04h-.32c-.08 0-.186.013-.32.04h.08c-.32.08-.64.12-.96.12-.853 0-1.386-.413-1.6-1.24-1.333 1.147-3.08 1.72-5.24 1.72-2.826 0-5.053-1-6.68-3-1.68-1.947-2.52-4.507-2.52-7.68 0-1.547.214-2.973.64-4.28.454-1.307 1.067-2.427 1.84-3.36 1.654-1.973 3.867-2.96 6.64-2.96Zm4.76 13.84c.054-.427.094-.893.12-1.4.027-.533.04-1.12.04-1.76 0-.827-.026-1.507-.08-2.04-.026-.56-.066-.987-.12-1.28-.213-1.227-.68-2.12-1.4-2.68-.96-.747-1.986-1.12-3.08-1.12-1.573 0-2.8.627-3.68 1.88-.88 1.227-1.32 2.92-1.32 5.08 0 2.267.454 4.04 1.36 5.32.934 1.253 2.2 1.88 3.8 1.88 1.2 0 2.187-.347 2.96-1.04.8-.72 1.267-1.667 1.4-2.84Zm28.545-4.88c0 .613-.014 1.093-.04 1.44-.027.347-.107.613-.24.8-.134.187-.334.307-.6.36-.24.027-.587.04-1.04.04h-12.04c-.107 0-.16.013-.16.04 0 1.787.52 3.24 1.56 4.36.986 1.147 2.226 1.72 3.72 1.72a4.73 4.73 0 0 0 2.68-.8c.8-.533 1.32-1.213 1.56-2.04l.36-1.08c.16-.4.386-.72.68-.96.32-.24.706-.36 1.16-.36 1.386 0 2.08.667 2.08 2 0 1.813-.934 3.413-2.8 4.8-1.787 1.333-3.8 2-6.04 2-2.88 0-5.16-.947-6.84-2.84-1.654-1.893-2.48-4.4-2.48-7.52 0-3.147.88-5.76 2.64-7.84 1.786-2.053 4.12-3.08 7-3.08 1.333 0 2.52.213 3.56.64a8.494 8.494 0 0 1 2.8 1.88c1.653 1.733 2.48 3.88 2.48 6.44Zm-4.36-.96c0-1.2-.44-2.24-1.32-3.12-.934-.88-1.974-1.32-3.12-1.32-1.174 0-2.32.48-3.44 1.44-1.014.933-1.52 1.933-1.52 3h9.4Zm30.693 11.92c-.64.48-1.334.827-2.08 1.04-.747.213-1.587.32-2.52.32-2.72 0-4.907-.987-6.56-2.96-1.654-1.92-2.48-4.507-2.48-7.76 0-1.6.186-3.04.56-4.32.4-1.28 1-2.387 1.8-3.32 1.6-1.947 3.773-2.92 6.52-2.92.986 0 1.906.16 2.76.48.88.32 1.693.787 2.44 1.4.213-.933.84-1.4 1.88-1.4 1.28 0 1.92.84 1.92 2.52v.8l-.16 4.48v7.24l.12 5.44c.026.667.053 1.253.08 1.76.053.533.106.893.16 1.08.053.16.133.253.24.28l.4-.08c.16-.027.333-.053.52-.08.026 0 .053-.013.08-.04h.16-.08.56c1.253 0 1.88.587 1.88 1.76 0 1.2-.694 1.8-2.08 1.8-.48 0-1.174-.04-2.08-.12-.88-.08-1.547-.12-2-.12h-.84c-.347.027-.734.067-1.16.12-.4.053-.787.08-1.16.08-.347.027-.627.04-.84.04-1.36 0-2.04-.6-2.04-1.8 0-1.173.64-1.76 1.92-1.76a6.93 6.93 0 0 1 1.36.16h.08c0 .027.026.04.08.04h.12c.026.027.053.04.08.04.133 0 .24-.427.32-1.28.026-.08.04-.333.04-.76v-2.16Zm-.04-9.36a38.002 38.002 0 0 0-.12-2.16c-.027-.587-.094-1.027-.2-1.32-.32-1.147-.907-2.04-1.76-2.68-.774-.56-1.614-.84-2.52-.84-1.44 0-2.574.613-3.4 1.84-.827 1.2-1.24 2.893-1.24 5.08 0 2.293.413 4.08 1.24 5.36.853 1.253 2.04 1.88 3.56 1.88 1.12 0 2.093-.373 2.92-1.12.826-.747 1.306-1.667 1.44-2.76v.04c.026-.213.04-.507.04-.88.026-.373.04-.827.04-1.36v-1.08Zm25.708 10.24c-1.013 0-1.587-.413-1.72-1.24-1.387 1.147-3.147 1.72-5.28 1.72-3.227 0-5.48-1.013-6.76-3.04a5.9 5.9 0 0 1-.64-1.44 6.737 6.737 0 0 1-.28-1.6c-.027-.32-.04-.773-.04-1.36v-5.16c0-3.12-.16-4.68-.48-4.68a1.08 1.08 0 0 0-.24.04c-.107 0-.227.013-.36.04a6.713 6.713 0 0 1-.6.08c-.24.027-.333.04-.28.04-1.307 0-1.96-.6-1.96-1.8 0-1.147.76-1.72 2.28-1.72.133 0 .293.013.48.04.213 0 .427.013.64.04.213.027.413.053.6.08h.96c.213-.027.427-.067.64-.12.107-.027.213-.04.32-.04.107-.027.24-.04.4-.04 1.227 0 1.84.653 1.84 1.96v.8l-.04 2.52-.12 2.8v2.4c0 1.093.04 2.013.12 2.76.107.747.227 1.347.36 1.8.507 1.36 1.693 2.04 3.56 2.04.933 0 1.76-.213 2.48-.64.747-.427 1.267-1 1.56-1.72.373-.907.56-2.707.56-5.4v-4.56c-.08-.853-.2-1.28-.36-1.28-.107 0-.293.027-.56.08h-.56c-1.307 0-1.96-.573-1.96-1.72 0-1.227.707-1.84 2.12-1.84.133 0 .293.013.48.04.187 0 .387.013.6.04.213.027.413.053.6.08h.72c.16 0 .333-.013.52-.04.16-.027.32-.04.48-.04.187-.027.347-.04.48-.04 1.2 0 1.8.573 1.8 1.72a5 5 0 0 1-.08.96v-.04c-.053.48-.107 1.067-.16 1.76-.027.693-.04 1.493-.04 2.4v5.84c0 1.493.013 2.307.04 2.44.133 1.093.267 1.64.4 1.64h.28c.133-.027.28-.053.44-.08a7.49 7.49 0 0 1 .52-.08c.24-.027.333-.04.28-.04 1.307 0 1.96.587 1.96 1.76 0 1.227-.747 1.84-2.24 1.84h-.4a2.01 2.01 0 0 1-.4-.04.35.35 0 0 1-.16-.04h-.12c-.64-.08-1-.12-1.08-.12a.298.298 0 0 0-.12.04h-.12c-.16 0-.307.013-.44.04h.04c-.32.08-.64.12-.96.12Zm26.046-11.84c0 .613-.014 1.093-.04 1.44-.027.347-.107.613-.24.8-.134.187-.334.307-.6.36-.24.027-.587.04-1.04.04h-12.04c-.107 0-.16.013-.16.04 0 1.787.52 3.24 1.56 4.36.986 1.147 2.226 1.72 3.72 1.72a4.73 4.73 0 0 0 2.68-.8c.8-.533 1.32-1.213 1.56-2.04l.36-1.08c.16-.4.386-.72.68-.96.32-.24.706-.36 1.16-.36 1.386 0 2.08.667 2.08 2 0 1.813-.934 3.413-2.8 4.8-1.787 1.333-3.8 2-6.04 2-2.88 0-5.16-.947-6.84-2.84-1.654-1.893-2.48-4.4-2.48-7.52 0-3.147.88-5.76 2.64-7.84 1.786-2.053 4.12-3.08 7-3.08 1.333 0 2.52.213 3.56.64a8.494 8.494 0 0 1 2.8 1.88c1.653 1.733 2.48 3.88 2.48 6.44Zm-4.36-.96c0-1.2-.44-2.24-1.32-3.12-.934-.88-1.974-1.32-3.12-1.32-1.174 0-2.32.48-3.44 1.44-1.014.933-1.52 1.933-1.52 3h9.4ZM42.006 168.04c.907 0 1.427.4 1.56 1.2 1.414-1.253 3.134-1.88 5.16-1.88 1.36 0 2.587.24 3.68.72a7.914 7.914 0 0 1 2.8 2.04c.8.88 1.4 1.96 1.8 3.24.427 1.253.64 2.667.64 4.24 0 1.6-.24 3.08-.72 4.44-.453 1.36-1.066 2.547-1.84 3.56a7.917 7.917 0 0 1-2.96 2.28c-1.146.507-2.426.76-3.84.76-1.84 0-3.4-.48-4.68-1.44v2.88c0 .293.014.507.04.64v-.04c.107.507.267.76.48.76.107 0 .294-.027.56-.08.187-.027.414-.053.68-.08a6.96 6.96 0 0 0 .4-.04c1.2 0 1.8.587 1.8 1.76 0 1.2-.746 1.8-2.24 1.8-.213 0-.48-.013-.8-.04a20.676 20.676 0 0 1-1-.12h.04c-.613-.08-1.426-.12-2.44-.12h-.76c-.24.027-.466.053-.68.08h-.16c-.026.027-.066.04-.12.04-.4.053-.76.093-1.08.12-.32.027-.56.04-.72.04-.613 0-1.133-.187-1.56-.56-.426-.347-.64-.787-.64-1.32 0-1.147.64-1.72 1.92-1.72h.4l.48.08c.347.107.614.16.8.16.107 0 .187-.107.24-.32.054-.293.094-.773.12-1.44.027-.64.054-1.493.08-2.56v-7.28c.027-2.453.04-4.893.04-7.32-.026-.827-.133-1.24-.32-1.24-.133 0-.333.04-.6.12a4.9 4.9 0 0 1-.52.12c-.16.027-.346.04-.56.04-1.36 0-2.04-.6-2.04-1.8 0-1.147.774-1.72 2.32-1.72h.48c.187 0 .347.013.48.04.107 0 .2.013.28.04h.28c.187.027.334.04.44.04h.72l.56-.08c.214-.027.4-.04.56-.04h.44Zm2.16 6.32a11.015 11.015 0 0 0-.28 1.68c-.053.56-.093 1.16-.12 1.8v.32c0 .107-.013.213-.04.32v.48c0 .827.027 1.533.08 2.12.08.587.187 1.067.32 1.44.107.347.28.667.52.96.267.293.56.56.88.8.374.24.787.44 1.24.6.454.133.934.2 1.44.2 1.627 0 2.88-.613 3.76-1.84.88-1.227 1.32-2.987 1.32-5.28 0-4.693-1.573-7.04-4.72-7.04-1.04 0-1.986.32-2.84.96a4.12 4.12 0 0 0-1.56 2.48Zm33.305 14.12c-1.974 0-3.307-.667-4-2-1.414 1.44-3.374 2.16-5.88 2.16-2.267 0-4.067-.547-5.4-1.64-1.334-1.12-2-2.6-2-4.44 0-1.12.266-2.107.8-2.96a6.329 6.329 0 0 1 2.24-2.12c.72-.4 1.346-.667 1.88-.8.506-.133 1.533-.293 3.08-.48 2.026-.213 3.32-.493 3.88-.84.453-.32.68-.92.68-1.8 0-.853-.307-1.533-.92-2.04-.587-.507-1.427-.76-2.52-.76a4.9 4.9 0 0 0-2.84.88v-.04c-.187.187-.28.293-.28.32h.04c.56.48.84 1.053.84 1.72s-.254 1.213-.76 1.64c-.48.427-1.094.64-1.84.64-.854 0-1.56-.267-2.12-.8-.56-.56-.84-1.253-.84-2.08 0-1.6.786-2.947 2.36-4.04 1.493-1.093 3.32-1.64 5.48-1.64 5.04 0 7.56 2.387 7.56 7.16v9c.026.347.053.587.08.72.133.587.346.88.64.88.453 0 .68-.627.68-1.88v-1.88c0-1.147.6-1.72 1.8-1.72 1.28 0 1.92.773 1.92 2.32v.2l-.04 2.16c-.054 2.773-1.56 4.16-4.52 4.16Zm-4.8-9.56c-.16.053-.32.12-.48.2a5.028 5.028 0 0 1-.48.16c-.72.24-1.854.427-3.4.56-2.507.24-3.76 1.133-3.76 2.68 0 .773.28 1.4.84 1.88.586.453 1.386.68 2.4.68 1.52 0 2.693-.413 3.52-1.24.853-.827 1.293-1.96 1.32-3.4l.04-1.52Zm19.018-11.56c1.466 0 2.706.293 3.72.88.24-.747.826-1.12 1.76-1.12 1.253 0 1.88.587 1.88 1.76a.356.356 0 0 1-.04.16v.28c0 .107-.014.24-.04.4v.4a6.723 6.723 0 0 0-.16 1.4c0 .347.04.76.12 1.24.053.293.093.56.12.8.026.213.04.413.04.6 0 1.333-.627 2-1.88 2-1.227 0-1.867-.573-1.92-1.72l-.04-1.28c-.027-.613-.4-1.133-1.12-1.56-.694-.453-1.534-.68-2.52-.68-.96 0-1.774.24-2.44.72-.667.48-1 1.093-1 1.84 0 .64.253 1.16.76 1.56.506.373 1.173.64 2 .8.373.053.733.107 1.08.16l1.12.16c4.693.64 7.04 2.587 7.04 5.84 0 1.947-.787 3.573-2.36 4.88-1.547 1.173-3.494 1.76-5.84 1.76-1.76 0-3.36-.4-4.8-1.2-.134 1.013-.774 1.52-1.92 1.52-1.36 0-2.04-.693-2.04-2.08.053-.4.093-.72.12-.96.053-.24.093-.453.12-.64.026-.187.04-.373.04-.56.026-.213.04-.507.04-.88 0-.293-.027-.6-.08-.92a9.42 9.42 0 0 0-.12-.96 4.793 4.793 0 0 1-.12-1.08c0-1.227.626-1.84 1.88-1.84.853 0 1.373.227 1.56.68.186.4.293 1.133.32 2.2.026.933.52 1.693 1.48 2.28.986.587 2.266.88 3.84.88 1.04 0 1.893-.253 2.56-.76.693-.533 1.04-1.213 1.04-2.04 0-1.413-1.174-2.24-3.52-2.48a35.412 35.412 0 0 1-3.68-.6c-1.067-.267-1.96-.613-2.68-1.04-.72-.453-1.267-1.027-1.64-1.72-.374-.693-.56-1.56-.56-2.6 0-.96.186-1.84.56-2.64.4-.8.946-1.48 1.64-2.04.693-.56 1.52-1 2.48-1.32.96-.32 2.026-.48 3.2-.48Zm29.567 8.96c0 .613-.013 1.093-.04 1.44-.026.347-.106.613-.24.8-.133.187-.333.307-.6.36-.24.027-.586.04-1.04.04h-12.04c-.106 0-.16.013-.16.04 0 1.787.52 3.24 1.56 4.36.987 1.147 2.227 1.72 3.72 1.72.987 0 1.88-.267 2.68-.8.8-.533 1.32-1.213 1.56-2.04l.36-1.08c.16-.4.387-.72.68-.96.32-.24.707-.36 1.16-.36 1.387 0 2.08.667 2.08 2 0 1.813-.933 3.413-2.8 4.8-1.786 1.333-3.8 2-6.04 2-2.88 0-5.16-.947-6.84-2.84-1.653-1.893-2.48-4.4-2.48-7.52 0-3.147.88-5.76 2.64-7.84 1.787-2.053 4.12-3.08 7-3.08 1.334 0 2.52.213 3.56.64a8.484 8.484 0 0 1 2.8 1.88c1.654 1.733 2.48 3.88 2.48 6.44Zm-4.36-.96c0-1.2-.44-2.24-1.32-3.12-.933-.88-1.973-1.32-3.12-1.32-1.173 0-2.32.48-3.44 1.44-1.013.933-1.52 1.933-1.52 3h9.4Zm12.413-7.32c.987 0 1.56.413 1.72 1.24 1.44-1.28 3.253-1.92 5.44-1.92 1.493 0 2.893.373 4.2 1.12h-.04c1.387.8 2.307 1.747 2.76 2.84.4.933.6 2.12.6 3.56v9.08c.027.427.12.693.28.8h.52a7.49 7.49 0 0 0 .52-.08c.133-.027.253-.04.36-.04.107-.027.24-.04.4-.04.48 0 .907.173 1.28.52.373.32.56.707.56 1.16 0 .533-.213.987-.64 1.36-.427.347-.947.52-1.56.52-.133 0-.347-.013-.64-.04-.267 0-.547-.027-.84-.08-.4-.053-.84-.093-1.32-.12a10.48 10.48 0 0 0-1.2-.08 9.16 9.16 0 0 0-.84.04c-.267 0-.507.013-.72.04a23.79 23.79 0 0 1-1.44.16c-.373.053-.587.08-.64.08-1.44 0-2.16-.627-2.16-1.88 0-1.12.64-1.68 1.92-1.68.107.027.213.04.32.04.107 0 .2.013.28.04h.32c.133.027.24.053.32.08h.2c.08.027.133.04.16.04.187 0 .293-.507.32-1.52 0-.32.013-.64.04-.96.027-.347.04-.68.04-1l.04-2.28v-2.88c0-1.2-.067-2.093-.2-2.68-.08-.4-.227-.76-.44-1.08a2.892 2.892 0 0 0-.76-.84v.04c-.773-.533-1.587-.8-2.44-.8-1.787 0-3.067.627-3.84 1.88-.533.907-.8 2.507-.8 4.8v5.04c0 .907.027 1.52.08 1.84.08.32.2.48.36.48.027 0 .107-.013.24-.04.133-.027.28-.053.44-.08.16-.053.307-.093.44-.12.16-.027.347-.04.56-.04 1.227 0 1.84.6 1.84 1.8 0 1.2-.72 1.8-2.16 1.8-.133 0-.4-.027-.8-.08-.373-.053-.8-.107-1.28-.16a11.905 11.905 0 0 0-2.64-.08c-.32.027-.707.067-1.16.12l-.88.08c-.24.053-.467.08-.68.08-.213.027-.347.04-.4.04-1.493 0-2.24-.613-2.24-1.84 0-1.147.613-1.72 1.84-1.72.133 0 .24.013.32.04.107 0 .213.013.32.04.347.08.707.12 1.08.12.32 0 .493-.547.52-1.64 0-.693.013-1.387.04-2.08.027-.72.04-1.427.04-2.12v-4.6l-.08-1.32c-.053-.587-.107-1-.16-1.24-.053-.267-.147-.427-.28-.48-.053.027-.173.053-.36.08a1.88 1.88 0 0 0-.44.04c-.16.027-.307.053-.44.08h-.4c-1.333 0-2-.587-2-1.76s.773-1.76 2.32-1.76h.24c.08-.027.173-.013.28.04l1.32.16h.44c.187-.027.36-.053.52-.08.213-.027.387-.04.52-.04.16-.027.347-.04.56-.04Zm37.189 15.36c.026.933.146 1.4.36 1.4a.65.65 0 0 0 .2-.04h.16c.08-.027.173-.053.28-.08h.16a.348.348 0 0 1 .16-.04h.08c0-.027.026-.04.08-.04a.44.44 0 0 1 .2-.04h.24c1.253 0 1.88.6 1.88 1.8 0 1.2-.734 1.8-2.2 1.8-.214 0-.494-.013-.84-.04-.32-.027-.707-.067-1.16-.12a25.794 25.794 0 0 0-1.16-.12 9.793 9.793 0 0 0-.8-.04c-.187 0-.427.013-.72.04-.294.027-.64.067-1.04.12-.374.053-.72.093-1.04.12-.32.027-.587.04-.8.04h-.2c-1.494 0-2.24-.64-2.24-1.92 0-1.12.653-1.68 1.96-1.68h.4c.106.027.213.04.32.04.32.053.546.093.68.12.133.027.226.04.28.04.106 0 .186-.067.24-.2.053-.187.093-.52.12-1 .026-.48.053-1.12.08-1.92v-1.32c.026-.453.04-.893.04-1.32l.12-5.88v-1.52c0-.587-.014-1.2-.04-1.84V166.4l-.12-1.52a1.63 1.63 0 0 0-.2-.24c-.08-.08-.16-.12-.24-.12-.027 0-.347.053-.96.16-.134.027-.254.04-.36.04h-.32c-1.307 0-1.96-.573-1.96-1.72 0-1.2.72-1.8 2.16-1.8h.44c.186 0 .32.013.4.04l.8.12c.053 0 .106.013.16.04h.16c.133.027.253.04.36.04h.72c.213-.027.426-.067.64-.12.24-.053.453-.093.64-.12a5.08 5.08 0 0 1 .64-.04c.986 0 1.48.547 1.48 1.64v.36c.026.08.013.173-.04.28-.16 1.973-.24 4.707-.24 8.2l.04 11.76Zm14.584 5.24c-2.854 0-5.134-.973-6.84-2.92-1.707-1.947-2.56-4.52-2.56-7.72 0-3.227.853-5.787 2.56-7.68 1.706-1.973 4.026-2.96 6.96-2.96 2.933 0 5.266.96 7 2.88 1.68 1.893 2.52 4.44 2.52 7.64 0 3.253-.867 5.84-2.6 7.76-1.734 2-4.08 3-7.04 3Zm.2-17.72c-1.6 0-2.854.573-3.76 1.72-.88 1.147-1.36 2.787-1.44 4.92v.44c0 2.213.44 3.947 1.32 5.2.88 1.253 2.12 1.88 3.72 1.88 1.626 0 2.906-.613 3.84-1.84.96-1.253 1.44-3.013 1.44-5.28 0-4.693-1.707-7.04-5.12-7.04Zm20.876-3.56c1.466 0 2.706.293 3.72.88.24-.747.826-1.12 1.76-1.12 1.253 0 1.88.587 1.88 1.76a.364.364 0 0 1-.04.16v.28c0 .107-.014.24-.04.4v.4a6.435 6.435 0 0 0-.16 1.4c0 .347.04.76.12 1.24.053.293.093.56.12.8.026.213.04.413.04.6 0 1.333-.627 2-1.88 2-1.227 0-1.867-.573-1.92-1.72l-.04-1.28c-.027-.613-.4-1.133-1.12-1.56-.694-.453-1.534-.68-2.52-.68-.96 0-1.774.24-2.44.72-.667.48-1 1.093-1 1.84 0 .64.253 1.16.76 1.56.506.373 1.173.64 2 .8.373.053.733.107 1.08.16l1.12.16c4.693.64 7.04 2.587 7.04 5.84 0 1.947-.787 3.573-2.36 4.88-1.547 1.173-3.494 1.76-5.84 1.76-1.76 0-3.36-.4-4.8-1.2-.134 1.013-.774 1.52-1.92 1.52-1.36 0-2.04-.693-2.04-2.08.053-.4.093-.72.12-.96.053-.24.093-.453.12-.64.026-.187.04-.373.04-.56.026-.213.04-.507.04-.88 0-.293-.027-.6-.08-.92a9.592 9.592 0 0 0-.12-.96 4.793 4.793 0 0 1-.12-1.08c0-1.227.626-1.84 1.88-1.84.853 0 1.373.227 1.56.68.186.4.293 1.133.32 2.2.026.933.52 1.693 1.48 2.28.986.587 2.266.88 3.84.88 1.04 0 1.893-.253 2.56-.76.693-.533 1.04-1.213 1.04-2.04 0-1.413-1.174-2.24-3.52-2.48a35.372 35.372 0 0 1-3.68-.6c-1.067-.267-1.96-.613-2.68-1.04-.72-.453-1.267-1.027-1.64-1.72-.374-.693-.56-1.56-.56-2.6 0-.96.186-1.84.56-2.64.4-.8.946-1.48 1.64-2.04.693-.56 1.52-1 2.48-1.32.96-.32 2.026-.48 3.2-.48Zm36.407-2.12h-7.52c-.48 0-.867.013-1.16.04-.293.027-.507.067-.64.12-.32.08-.48.413-.48 1v.44c.027.187.053.387.08.6.027.213.04.427.04.64.027.213.04.387.04.52 0 1.707-.667 2.56-2 2.56-1.307 0-1.96-.733-1.96-2.2v-.6c0-.267.013-.547.04-.84.027-.267.04-.52.04-.76.027-.267.04-.467.04-.6v-.96c0-.267-.013-.507-.04-.72 0-.187-.013-.373-.04-.56v-.56c0-.48.027-.853.08-1.12.08-.267.213-.467.4-.6.213-.16.507-.253.88-.28.4-.053.933-.08 1.6-.08h10.04c.24 0 .533-.013.88-.04h.48c.187-.027.387-.04.6-.04.293-.027.64-.04 1.04-.04h1.16c1.947 0 2.92.64 2.92 1.92 0 .693-.387 1.427-1.16 2.2l-6.08 5.84c2.267.08 4.093.827 5.48 2.24 1.52 1.52 2.28 3.427 2.28 5.72 0 2.853-1.08 5.213-3.24 7.08v-.04a9.29 9.29 0 0 1-3.56 2.04c-1.333.453-2.827.68-4.48.68-3.013 0-5.533-.733-7.56-2.2-2.107-1.547-3.16-3.44-3.16-5.68 0-.667.107-1.293.32-1.88a4.672 4.672 0 0 1 .88-1.56c.4-.427.853-.76 1.36-1a3.789 3.789 0 0 1 1.72-.4c.853 0 1.547.253 2.08.76.56.507.84 1.16.84 1.96 0 1.547-.907 2.36-2.72 2.44.107.933.707 1.773 1.8 2.52.613.427 1.32.76 2.12 1a9.6 9.6 0 0 0 2.48.32c.933 0 1.813-.133 2.64-.4a6.627 6.627 0 0 0 2.16-1.24c.56-.56 1-1.2 1.32-1.92a6.03 6.03 0 0 0 .48-2.4c0-2.96-1.68-4.44-5.04-4.44-.853 0-1.853.107-3 .32a8.017 8.017 0 0 0-.36.08h-.4c-1.04 0-1.56-.507-1.56-1.52 0-.453.267-.933.8-1.44l7.04-6.92ZM56.552 207.36c1.467 0 2.707.293 3.72.88.24-.747.827-1.12 1.76-1.12 1.253 0 1.88.587 1.88 1.76a.355.355 0 0 1-.04.16v.28c0 .107-.013.24-.04.4v.4a6.774 6.774 0 0 0-.16 1.4c0 .347.04.76.12 1.24.053.293.093.56.12.8.027.213.04.413.04.6 0 1.333-.627 2-1.88 2-1.227 0-1.867-.573-1.92-1.72l-.04-1.28c-.027-.613-.4-1.133-1.12-1.56-.693-.453-1.533-.68-2.52-.68-.96 0-1.773.24-2.44.72s-1 1.093-1 1.84c0 .64.253 1.16.76 1.56.507.373 1.173.64 2 .8.373.053.733.107 1.08.16l1.12.16c4.693.64 7.04 2.587 7.04 5.84 0 1.947-.787 3.573-2.36 4.88-1.547 1.173-3.493 1.76-5.84 1.76-1.76 0-3.36-.4-4.8-1.2-.133 1.013-.773 1.52-1.92 1.52-1.36 0-2.04-.693-2.04-2.08.053-.4.093-.72.12-.96.053-.24.093-.453.12-.64a3.95 3.95 0 0 0 .04-.56 7.49 7.49 0 0 0 .04-.88c0-.293-.027-.6-.08-.92a9.364 9.364 0 0 0-.12-.96 4.793 4.793 0 0 1-.12-1.08c0-1.227.627-1.84 1.88-1.84.853 0 1.373.227 1.56.68.187.4.293 1.133.32 2.2.027.933.52 1.693 1.48 2.28.987.587 2.267.88 3.84.88 1.04 0 1.893-.253 2.56-.76.693-.533 1.04-1.213 1.04-2.04 0-1.413-1.173-2.24-3.52-2.48a35.421 35.421 0 0 1-3.68-.6c-1.067-.267-1.96-.613-2.68-1.04-.72-.453-1.267-1.027-1.64-1.72-.373-.693-.56-1.56-.56-2.6 0-.96.187-1.84.56-2.64.4-.8.947-1.48 1.64-2.04s1.52-1 2.48-1.32c.96-.32 2.027-.48 3.2-.48Zm29.568 8.96c0 .613-.014 1.093-.04 1.44-.027.347-.107.613-.24.8-.134.187-.334.307-.6.36-.24.027-.587.04-1.04.04H72.16c-.107 0-.16.013-.16.04 0 1.787.52 3.24 1.56 4.36.986 1.147 2.226 1.72 3.72 1.72.986 0 1.88-.267 2.68-.8.8-.533 1.32-1.213 1.56-2.04l.36-1.08c.16-.4.386-.72.68-.96.32-.24.706-.36 1.16-.36 1.386 0 2.08.667 2.08 2 0 1.813-.934 3.413-2.8 4.8-1.787 1.333-3.8 2-6.04 2-2.88 0-5.16-.947-6.84-2.84-1.654-1.893-2.48-4.4-2.48-7.52 0-3.147.88-5.76 2.64-7.84 1.786-2.053 4.12-3.08 7-3.08 1.333 0 2.52.213 3.56.64a8.49 8.49 0 0 1 2.8 1.88c1.653 1.733 2.48 3.88 2.48 6.44Zm-4.36-.96c0-1.2-.44-2.24-1.32-3.12-.934-.88-1.974-1.32-3.12-1.32-1.174 0-2.32.48-3.44 1.44-1.014.933-1.52 1.933-1.52 3h9.4Zm16.652-8c.267 0 .534.013.8.04.294.027.574.067.84.12.214-1.12.72-1.987 1.52-2.6.827-.64 1.96-.96 3.4-.96 1.36 0 2.48.347 3.36 1.04.907.693 1.36 1.587 1.36 2.68 0 .773-.266 1.427-.8 1.96-.506.533-1.106.8-1.8.8-.56 0-1.066-.187-1.52-.56-.426-.4-.64-.867-.64-1.4 0-.24.027-.453.08-.64.08-.213.254-.427.52-.64a1.436 1.436 0 0 0-.36-.12.711.711 0 0 0-.32-.08c-.853 0-1.32.587-1.4 1.76.934.693 1.64 1.493 2.12 2.4.507.88.76 1.88.76 3 0 1.893-.733 3.48-2.2 4.76-1.413 1.253-3.186 1.88-5.32 1.88-.773 0-1.546-.08-2.32-.24a10.157 10.157 0 0 1-2.28-.8c-.4-.133-.653-.2-.76-.2-.186 0-.36.107-.52.32-.133.187-.2.427-.2.72 0 .96 1.107 1.44 3.32 1.44h.48c.107 0 .227-.013.36-.04h.52c2.454 0 4.467.24 6.04.72 1.52.48 2.72 1.213 3.6 2.2.907.987 1.36 2.12 1.36 3.4 0 1.013-.24 1.92-.72 2.72-.453.8-1.12 1.48-2 2.04-.88.56-1.946.987-3.2 1.28-1.253.293-2.653.44-4.2.44-3.12 0-5.56-.547-7.32-1.64-1.76-1.093-2.64-2.613-2.64-4.56 0-1.893.934-3.347 2.8-4.36-1.6-.853-2.4-2.067-2.4-3.64 0-.853.254-1.613.76-2.28.507-.667 1.187-1.2 2.04-1.6a4.34 4.34 0 0 1-.6-1.36 8.53 8.53 0 0 1-.12-1.48c0-1.84.734-3.413 2.2-4.72 1.44-1.2 3.24-1.8 5.4-1.8Zm.12 3.56c-.933 0-1.733.28-2.4.84-.666.56-1.026 1.267-1.08 2.12v.16c0 .987.32 1.773.96 2.36.64.56 1.467.84 2.48.84 1.094 0 1.974-.28 2.64-.84.667-.587 1-1.347 1-2.28 0-.933-.346-1.693-1.04-2.28-.693-.613-1.546-.92-2.56-.92Zm.04 14.68c-1.84 0-3.28.267-4.32.8-1.04.507-1.56 1.187-1.56 2.04 0 .88.507 1.56 1.52 2.04 1.014.507 2.387.76 4.12.76 1.84 0 3.28-.253 4.32-.76 1.067-.507 1.6-1.187 1.6-2.04 0-.88-.506-1.573-1.52-2.08-.986-.507-2.373-.76-4.16-.76Zm29.236 2.56c-1.013 0-1.586-.413-1.72-1.24-1.386 1.147-3.146 1.72-5.28 1.72-3.226 0-5.48-1.013-6.76-3.04a5.938 5.938 0 0 1-.64-1.44 6.737 6.737 0 0 1-.28-1.6 17.85 17.85 0 0 1-.04-1.36v-5.16c0-3.12-.16-4.68-.48-4.68a1.08 1.08 0 0 0-.24.04c-.106 0-.226.013-.36.04a6.713 6.713 0 0 1-.6.08c-.24.027-.333.04-.28.04-1.306 0-1.96-.6-1.96-1.8 0-1.147.76-1.72 2.28-1.72.134 0 .294.013.48.04.214 0 .427.013.64.04.214.027.414.053.6.08h.96c.214-.027.427-.067.64-.12.107-.027.214-.04.32-.04.107-.027.24-.04.4-.04 1.227 0 1.84.653 1.84 1.96v.8l-.04 2.52-.12 2.8v2.4c0 1.093.04 2.013.12 2.76.107.747.227 1.347.36 1.8.507 1.36 1.694 2.04 3.56 2.04.934 0 1.76-.213 2.48-.64.747-.427 1.267-1 1.56-1.72.374-.907.56-2.707.56-5.4v-4.56c-.08-.853-.2-1.28-.36-1.28-.106 0-.293.027-.56.08h-.56c-1.306 0-1.96-.573-1.96-1.72 0-1.227.707-1.84 2.12-1.84.134 0 .294.013.48.04.187 0 .387.013.6.04.214.027.414.053.6.08h.72c.16 0 .334-.013.52-.04.16-.027.32-.04.48-.04.187-.027.347-.04.48-.04 1.2 0 1.8.573 1.8 1.72 0 .373-.026.693-.08.96v-.04c-.053.48-.106 1.067-.16 1.76-.026.693-.04 1.493-.04 2.4v5.84c0 1.493.014 2.307.04 2.44.134 1.093.267 1.64.4 1.64h.28c.134-.027.28-.053.44-.08.134-.027.307-.053.52-.08.24-.027.334-.04.28-.04 1.307 0 1.96.587 1.96 1.76 0 1.227-.746 1.84-2.24 1.84h-.4c-.133 0-.266-.013-.4-.04a.354.354 0 0 1-.16-.04h-.12c-.64-.08-1-.12-1.08-.12a.308.308 0 0 0-.12.04h-.12c-.16 0-.306.013-.44.04h.04c-.32.08-.64.12-.96.12Zm12.966-20.12c.987 0 1.56.413 1.72 1.24 1.44-1.28 3.253-1.92 5.44-1.92 1.493 0 2.893.373 4.2 1.12h-.04c1.387.8 2.307 1.747 2.76 2.84.4.933.6 2.12.6 3.56v9.08c.027.427.12.693.28.8h.52a7.49 7.49 0 0 0 .52-.08c.133-.027.253-.04.36-.04.107-.027.24-.04.4-.04.48 0 .907.173 1.28.52.373.32.56.707.56 1.16 0 .533-.213.987-.64 1.36-.427.347-.947.52-1.56.52-.133 0-.347-.013-.64-.04-.267 0-.547-.027-.84-.08-.4-.053-.84-.093-1.32-.12a10.48 10.48 0 0 0-1.2-.08 9.16 9.16 0 0 0-.84.04c-.267 0-.507.013-.72.04a23.79 23.79 0 0 1-1.44.16c-.373.053-.587.08-.64.08-1.44 0-2.16-.627-2.16-1.88 0-1.12.64-1.68 1.92-1.68.107.027.213.04.32.04.107 0 .2.013.28.04h.32c.133.027.24.053.32.08h.2c.08.027.133.04.16.04.187 0 .293-.507.32-1.52 0-.32.013-.64.04-.96.027-.347.04-.68.04-1l.04-2.28v-2.88c0-1.2-.067-2.093-.2-2.68-.08-.4-.227-.76-.44-1.08a2.892 2.892 0 0 0-.76-.84v.04c-.773-.533-1.587-.8-2.44-.8-1.787 0-3.067.627-3.84 1.88-.533.907-.8 2.507-.8 4.8v5.04c0 .907.027 1.52.08 1.84.08.32.2.48.36.48.027 0 .107-.013.24-.04.133-.027.28-.053.44-.08.16-.053.307-.093.44-.12.16-.027.347-.04.56-.04 1.227 0 1.84.6 1.84 1.8 0 1.2-.72 1.8-2.16 1.8-.133 0-.4-.027-.8-.08-.373-.053-.8-.107-1.28-.16a11.905 11.905 0 0 0-2.64-.08c-.32.027-.707.067-1.16.12l-.88.08c-.24.053-.467.08-.68.08-.213.027-.347.04-.4.04-1.493 0-2.24-.613-2.24-1.84 0-1.147.613-1.72 1.84-1.72.133 0 .24.013.32.04.107 0 .213.013.32.04.347.08.707.12 1.08.12.32 0 .493-.547.52-1.64 0-.693.013-1.387.04-2.08.027-.72.04-1.427.04-2.12v-4.6l-.08-1.32c-.053-.587-.107-1-.16-1.24-.053-.267-.147-.427-.28-.48-.053.027-.173.053-.36.08a1.88 1.88 0 0 0-.44.04c-.16.027-.307.053-.44.08h-.4c-1.333 0-2-.587-2-1.76s.773-1.76 2.32-1.76h.24c.08-.027.173-.013.28.04l1.32.16h.44c.187-.027.36-.053.52-.08.213-.027.387-.04.52-.04.16-.027.347-.04.56-.04Zm29.229-.68c1.013 0 1.933.16 2.76.48.853.293 1.6.707 2.24 1.24v-2.12c0-.48-.014-.853-.04-1.12 0-.293-.014-.507-.04-.64-.08-.347-.187-.573-.32-.68a4.415 4.415 0 0 1-.48.08h-.44.08c-.16.053-.334.093-.52.12h-.44c-1.387 0-2.08-.587-2.08-1.76 0-1.2.853-1.8 2.56-1.8h.28c.133 0 .266.013.4.04.08 0 .16.013.24.04h.24l1.2.12h.32l.56-.08c.213-.027.4-.04.56-.04.186-.027.36-.04.52-.04 1.146 0 1.72.693 1.72 2.08v.6c-.027.027-.04.293-.04.8 0 .133-.014.293-.04.48v.52c0 .213-.04 1.2-.12 2.96 0 .133-.014.28-.04.44v.4c-.027.427-.04.813-.04 1.16V215.2l.08 6.32c.026.853.053 1.52.08 2 .026.48.066.8.12.96 0 .16.093.24.28.24h.32l.32-.08h.24a.644.644 0 0 1 .2-.04.55.55 0 0 1 .24-.04h.28c1.36 0 2.04.587 2.04 1.76 0 1.227-.787 1.84-2.36 1.84-.134 0-.32-.013-.56-.04a5.08 5.08 0 0 1-.64-.04c-.107 0-.227-.013-.36-.04-.107 0-.227-.013-.36-.04a2.227 2.227 0 0 0-.44-.04c-.027 0-.054.013-.08.04h-.32c-.08 0-.187.013-.32.04h.08c-.32.08-.64.12-.96.12-.854 0-1.387-.413-1.6-1.24-1.334 1.147-3.08 1.72-5.24 1.72-2.827 0-5.054-1-6.68-3-1.68-1.947-2.52-4.507-2.52-7.68 0-1.547.213-2.973.64-4.28.453-1.307 1.066-2.427 1.84-3.36 1.653-1.973 3.866-2.96 6.64-2.96Zm4.76 13.84c.053-.427.093-.893.12-1.4.026-.533.04-1.12.04-1.76 0-.827-.027-1.507-.08-2.04-.027-.56-.067-.987-.12-1.28-.214-1.227-.68-2.12-1.4-2.68-.96-.747-1.987-1.12-3.08-1.12-1.574 0-2.8.627-3.68 1.88-.88 1.227-1.32 2.92-1.32 5.08 0 2.267.453 4.04 1.36 5.32.933 1.253 2.2 1.88 3.8 1.88 1.2 0 2.186-.347 2.96-1.04.8-.72 1.266-1.667 1.4-2.84Zm19.424 7.44c-2.853 0-5.133-.973-6.84-2.92-1.707-1.947-2.56-4.52-2.56-7.72 0-3.227.853-5.787 2.56-7.68 1.707-1.973 4.027-2.96 6.96-2.96s5.267.96 7 2.88c1.68 1.893 2.52 4.44 2.52 7.64 0 3.253-.867 5.84-2.6 7.76-1.733 2-4.08 3-7.04 3Zm.2-17.72c-1.6 0-2.853.573-3.76 1.72-.88 1.147-1.36 2.787-1.44 4.92v.44c0 2.213.44 3.947 1.32 5.2.88 1.253 2.12 1.88 3.72 1.88 1.627 0 2.907-.613 3.84-1.84.96-1.253 1.44-3.013 1.44-5.28 0-4.693-1.707-7.04-5.12-7.04Zm20.876-3.56c1.467 0 2.707.293 3.72.88.24-.747.827-1.12 1.76-1.12 1.253 0 1.88.587 1.88 1.76a.35.35 0 0 1-.04.16v.28c0 .107-.013.24-.04.4v.4a6.93 6.93 0 0 0-.12.72c-.027.24-.04.467-.04.68 0 .347.04.76.12 1.24.053.293.093.56.12.8.027.213.04.413.04.6 0 1.333-.627 2-1.88 2-1.227 0-1.867-.573-1.92-1.72l-.04-1.28c-.027-.613-.4-1.133-1.12-1.56-.693-.453-1.533-.68-2.52-.68-.96 0-1.773.24-2.44.72s-1 1.093-1 1.84c0 .64.253 1.16.76 1.56.507.373 1.173.64 2 .8.373.053.733.107 1.08.16l1.12.16c4.693.64 7.04 2.587 7.04 5.84 0 1.947-.787 3.573-2.36 4.88-1.547 1.173-3.493 1.76-5.84 1.76-1.76 0-3.36-.4-4.8-1.2-.133 1.013-.773 1.52-1.92 1.52-1.36 0-2.04-.693-2.04-2.08.053-.4.093-.72.12-.96.053-.24.093-.453.12-.64.027-.187.04-.373.04-.56.027-.213.04-.507.04-.88 0-.293-.027-.6-.08-.92a9.592 9.592 0 0 0-.12-.96 4.793 4.793 0 0 1-.12-1.08c0-1.227.627-1.84 1.88-1.84.853 0 1.373.227 1.56.68.187.4.293 1.133.32 2.2.027.933.52 1.693 1.48 2.28.987.587 2.267.88 3.84.88 1.04 0 1.893-.253 2.56-.76.693-.533 1.04-1.213 1.04-2.04 0-1.413-1.173-2.24-3.52-2.48a35.417 35.417 0 0 1-3.68-.6c-1.067-.267-1.96-.613-2.68-1.04-.72-.453-1.267-1.027-1.64-1.72-.373-.693-.56-1.56-.56-2.6 0-.96.187-1.84.56-2.64.4-.8.947-1.48 1.64-2.04s1.52-1 2.48-1.32c.96-.32 2.027-.48 3.2-.48Zm15.287 21.28c-.853 0-1.573-.28-2.16-.84-.586-.56-.88-1.267-.88-2.12 0-.827.294-1.52.88-2.08.587-.587 1.307-.88 2.16-.88.854 0 1.574.293 2.16.88.587.56.88 1.253.88 2.08 0 .853-.293 1.56-.88 2.12-.586.56-1.306.84-2.16.84Z" fill="#000"/></svg>