<svg width="308" height="219" viewBox="0 0 308 219" fill="none" xmlns="http://www.w3.org/2000/svg">
<path d="M28 44.16C26.56 44.1067 25.84 44.9067 25.84 46.56V49.12C25.84 50.9333 26.64 51.84 28.24 51.84C28.88 51.84 29.68 51.76 30.64 51.6C31.8133 51.3867 32.8 51.28 33.6 51.28C34.9333 51.28 36 51.76 36.8 52.72C37.6 53.68 38 54.96 38 56.56C38 58.32 37.4667 59.7333 36.4 60.8C35.3333 61.8667 33.9467 62.4 32.24 62.4C30.7467 62.4 28.5333 62.2667 25.6 62C22.6667 61.7333 20.4533 61.6 18.96 61.6C16.6667 61.6 14.7467 61.68 13.2 61.84L9.28 62.24C8.21333 62.3467 7.49333 62.4 7.12 62.4C5.41333 62.4 4.02667 61.8667 2.96 60.8C1.94667 59.7333 1.44 58.32 1.44 56.56C1.44 55.0667 1.84 53.8133 2.64 52.8C3.49333 51.7867 4.53333 51.28 5.76 51.28C6.24 51.28 6.90667 51.3867 7.76 51.6C8.61333 51.76 9.22667 51.84 9.6 51.84C11.04 51.84 11.76 50.0267 11.76 46.4V24.24C11.76 22.5333 11.7067 21.44 11.6 20.96C11.3333 19.5733 10.6667 18.88 9.6 18.88C9.17333 18.88 8.53333 18.9867 7.68 19.2C6.88 19.36 6.24 19.44 5.76 19.44C4.53333 19.44 3.49333 18.9333 2.64 17.92C1.84 16.9067 1.44 15.6533 1.44 14.16C1.44 12.4 1.97333 10.9867 3.04 9.92C4.10667 8.8 5.49333 8.24 7.2 8.24C7.25333 8.24 7.33333 8.24 7.44 8.24C7.54667 8.29333 7.65333 8.32 7.76 8.32C9.04 8.32 10.9867 8.45333 13.6 8.72C16.2133 8.98667 18.1867 9.12 19.52 9.12C22.08 9.12 24.88 9.01333 27.92 8.8C31.76 8.53333 33.9467 8.4 34.48 8.4C40.2933 8.4 44.9867 10.0533 48.56 13.36C52.1867 16.6133 54 20.9067 54 26.24C54 31.7867 52.1333 36.1867 48.4 39.44C44.72 42.6933 39.68 44.32 33.28 44.32C32.7467 44.32 31.7333 44.2933 30.24 44.24L28 44.16ZM25.84 30.64C25.84 32.1333 25.9733 33.0667 26.24 33.44C26.5067 33.76 27.2267 33.9467 28.4 34L29.68 34.08C35.9733 34.4533 39.12 31.9733 39.12 26.64C39.12 21.52 36.2933 18.96 30.64 18.96C29.2533 18.96 28.2933 19.04 27.76 19.2C26.8 19.4667 26.2133 20.1067 26 21.12C25.8933 21.6533 25.84 22.4533 25.84 23.52V30.64ZM74.6706 21.76C76.164 21.76 76.9106 22.8 76.9106 24.88V48.96C76.9106 51.68 77.4173 53.04 78.4306 53.04C78.644 53.04 79.0173 52.9867 79.5506 52.88C80.1373 52.72 80.6173 52.64 80.9906 52.64C83.2306 52.64 84.3506 54.0267 84.3506 56.8C84.3506 60.48 82.7773 62.32 79.6306 62.32C79.0973 62.32 77.604 62.1867 75.1506 61.92C73.6573 61.76 71.9506 61.68 70.0306 61.68C69.0706 61.68 67.6573 61.7867 65.7906 62C63.924 62.2133 62.5373 62.32 61.6306 62.32C60.1906 62.32 59.0173 61.84 58.1106 60.88C57.204 59.8667 56.7506 58.5867 56.7506 57.04C56.7506 54 58.0306 52.48 60.5906 52.48C60.5906 52.48 61.284 52.64 62.6706 52.96C62.884 53.0133 63.0706 53.04 63.2306 53.04C64.1906 53.04 64.6706 51.5467 64.6706 48.56V35.6C64.6706 32.56 64.2173 31.04 63.3106 31.04C63.1506 31.04 62.6706 31.1733 61.8706 31.44C61.3373 31.5467 60.9106 31.6 60.5906 31.6C58.0306 31.6 56.7506 30.1067 56.7506 27.12C56.7506 25.52 57.204 24.24 58.1106 23.28C59.0173 22.2667 60.2173 21.76 61.7106 21.76C62.2973 21.76 63.1506 21.84 64.2706 22C66.1373 22.2667 67.6306 22.4 68.7506 22.4C69.6573 22.4 70.8306 22.2933 72.2706 22.08C73.7106 21.8667 74.5106 21.76 74.6706 21.76ZM70.1106 18.72C68.1373 18.72 66.4306 18 64.9906 16.56C63.5506 15.12 62.8306 13.4133 62.8306 11.44C62.8306 9.41333 63.524 7.70666 64.9106 6.32C66.3506 4.88 68.084 4.16 70.1106 4.16C72.1373 4.16 73.844 4.88 75.2306 6.32C76.6706 7.70666 77.3906 9.41333 77.3906 11.44C77.3906 13.4667 76.6706 15.2 75.2306 16.64C73.844 18.0267 72.1373 18.72 70.1106 18.72ZM125.731 38.56C125.731 40.8 125.438 42.2933 124.851 43.04C124.318 43.7867 123.225 44.16 121.571 44.16H102.051C101.091 44.16 100.478 44.2667 100.211 44.48C99.9979 44.64 99.8913 45.0933 99.8913 45.84C99.8913 48.08 100.611 49.9467 102.051 51.44C103.491 52.9333 105.305 53.68 107.491 53.68C109.731 53.68 112.025 52.4533 114.371 50C115.971 48.2933 117.731 47.44 119.651 47.44C121.251 47.44 122.531 47.8933 123.491 48.8C124.505 49.7067 125.011 50.8533 125.011 52.24C125.011 55.3333 123.305 57.9733 119.891 60.16C116.531 62.2933 112.425 63.36 107.571 63.36C101.225 63.36 96.1579 61.44 92.3713 57.6C88.5846 53.76 86.6913 48.64 86.6913 42.24C86.6913 35.7867 88.5579 30.5867 92.2913 26.64C96.0779 22.64 101.011 20.64 107.091 20.64C112.745 20.64 117.251 22.2667 120.611 25.52C124.025 28.7733 125.731 33.12 125.731 38.56ZM100.291 34.56C100.291 34.88 100.371 35.1467 100.531 35.36C100.691 35.5733 101.251 35.68 102.211 35.68H111.171C111.971 35.68 112.451 35.6 112.611 35.44C112.825 35.2267 112.931 34.88 112.931 34.4C112.931 33.0133 112.318 31.8133 111.091 30.8C109.865 29.7333 108.425 29.2 106.771 29.2C104.638 29.2 102.905 30.0267 101.571 31.68C100.718 32.7467 100.291 33.7067 100.291 34.56ZM147.323 21.2C151.376 21.2 155.11 22.7733 158.523 25.92V20.16C158.523 18.24 157.856 17.28 156.523 17.28C156.203 17.28 155.563 17.3333 154.603 17.44C153.91 17.6533 153.216 17.76 152.523 17.76C151.51 17.76 150.656 17.3333 149.963 16.48C149.27 15.6267 148.923 14.56 148.923 13.28C148.923 9.86666 150.736 8.16 154.363 8.16C155.536 8.16 156.39 8.18666 156.923 8.24C159.056 8.45333 160.496 8.56 161.243 8.56C161.936 8.56 162.95 8.50666 164.283 8.4C165.616 8.29333 166.603 8.24 167.243 8.24C168.576 8.24 169.483 8.56 169.963 9.2C170.496 9.78666 170.763 10.9067 170.763 12.56V48.96C170.763 51.68 171.27 53.04 172.283 53.04C172.603 53.04 173.003 52.96 173.483 52.8C173.803 52.6933 174.23 52.64 174.763 52.64C177.056 52.64 178.203 54 178.203 56.72C178.203 58.3733 177.803 59.7333 177.003 60.8C176.203 61.8133 175.136 62.32 173.803 62.32H173.323L170.523 61.84C169.883 61.7333 168.976 61.68 167.803 61.68C166.416 61.68 165.27 61.7333 164.363 61.84C163.03 62 162.31 62.08 162.203 62.08C160.55 62.08 159.723 61.12 159.723 59.2V56.24C156.95 60.9867 152.79 63.36 147.243 63.36C142.336 63.36 138.283 61.36 135.083 57.36C131.936 53.3067 130.363 48.2133 130.363 42.08C130.363 35.84 131.91 30.8 135.003 26.96C138.15 23.12 142.256 21.2 147.323 21.2ZM150.123 31.28C148.15 31.28 146.523 32.2133 145.243 34.08C144.016 35.9467 143.323 38.48 143.163 41.68C143.163 41.68 143.163 42.0267 143.163 42.72C143.163 45.9733 143.776 48.5333 145.003 50.4C146.283 52.2667 147.99 53.2 150.123 53.2C152.47 53.2 154.363 52.1867 155.803 50.16C157.296 48.1333 158.043 45.44 158.043 42.08C158.043 38.8267 157.323 36.2133 155.883 34.24C154.443 32.2667 152.523 31.28 150.123 31.28ZM197.861 24.24V31.04C198.607 28.32 199.487 26.32 200.501 25.04C202.847 22.1067 206.127 20.64 210.341 20.64C213.274 20.64 215.727 21.6 217.701 23.52C219.727 25.3867 220.741 27.7067 220.741 30.48C220.741 32.6667 220.101 34.48 218.821 35.92C217.541 37.3067 215.914 38 213.941 38C212.447 38 211.167 37.52 210.101 36.56C209.087 35.6 208.581 34.4267 208.581 33.04C208.581 32.2933 208.927 31.2533 209.621 29.92H209.141C205.567 29.92 203.167 31.8133 201.941 35.6C200.981 38.64 200.501 42.1333 200.501 46.08V49.12C200.501 51.04 200.661 52.2667 200.981 52.8C201.194 53.12 201.567 53.28 202.101 53.28C202.581 53.28 203.247 53.1733 204.101 52.96C204.954 52.7467 205.594 52.64 206.021 52.64C207.194 52.64 208.181 53.0667 208.981 53.92C209.834 54.72 210.261 55.7067 210.261 56.88C210.261 58.4267 209.727 59.7333 208.661 60.8C207.647 61.8133 206.394 62.32 204.901 62.32C204.101 62.32 202.607 62.1867 200.421 61.92C199.087 61.76 197.407 61.68 195.381 61.68C193.354 61.68 191.567 61.76 190.021 61.92C187.461 62.1867 185.887 62.32 185.301 62.32C181.994 62.32 180.341 60.5333 180.341 56.96C180.341 53.9733 181.621 52.48 184.181 52.48C184.607 52.48 185.087 52.5867 185.621 52.8C186.154 52.96 186.554 53.04 186.821 53.04C187.727 53.04 188.181 51.5467 188.181 48.56V35.6C188.181 32.56 187.727 31.04 186.821 31.04C186.607 31.04 186.181 31.1467 185.541 31.36C184.954 31.52 184.501 31.6 184.181 31.6C181.621 31.6 180.341 30.1333 180.341 27.2C180.341 25.6 180.767 24.2933 181.621 23.28C182.474 22.2667 183.567 21.76 184.901 21.76C185.434 21.76 186.181 21.8667 187.141 22.08C188.101 22.2933 189.007 22.4 189.861 22.4C190.501 22.4 191.434 22.2933 192.661 22.08C193.887 21.8667 194.794 21.76 195.381 21.76C197.034 21.76 197.861 22.5867 197.861 24.24ZM258.082 63.36C253.709 63.36 250.775 61.6 249.282 58.08C245.549 61.6 241.122 63.36 236.002 63.36C231.789 63.36 228.429 62.2667 225.922 60.08C223.415 57.84 222.162 54.88 222.162 51.2C222.162 45.6 224.589 41.9733 229.442 40.32C231.522 39.6267 233.922 39.04 236.642 38.56C240.429 37.92 242.989 37.2 244.322 36.4C245.709 35.5467 246.402 34.2667 246.402 32.56C246.402 31.3333 245.869 30.32 244.802 29.52C243.789 28.6667 242.509 28.24 240.962 28.24C239.202 28.24 238.322 28.8 238.322 29.92C238.322 30.2933 238.349 30.6667 238.402 31.04V31.36C238.402 32.8533 237.762 34.1067 236.482 35.12C235.255 36.1333 233.709 36.64 231.842 36.64C229.709 36.64 227.949 36 226.562 34.72C225.175 33.44 224.482 31.84 224.482 29.92C224.482 27.04 226.002 24.7733 229.042 23.12C232.082 21.4667 236.269 20.64 241.602 20.64C247.362 20.64 251.655 21.52 254.482 23.28C257.522 25.2 259.042 28.7733 259.042 34V50.56C259.042 52.2667 259.469 53.12 260.322 53.12C260.749 53.12 261.149 53.0933 261.522 53.04C261.682 52.9867 261.869 52.96 262.082 52.96C263.309 52.96 264.349 53.3867 265.202 54.24C266.055 55.0933 266.482 56.1333 266.482 57.36C266.482 59.12 265.682 60.56 264.082 61.68C262.535 62.8 260.535 63.36 258.082 63.36ZM246.482 46.24V44.48C246.109 44.6933 243.762 45.36 239.442 46.48C236.509 47.2267 235.042 48.3733 235.042 49.92C235.042 52.3733 236.482 53.6 239.362 53.6C244.109 53.6 246.482 51.1467 246.482 46.24ZM28 114.16C26.56 114.107 25.84 114.907 25.84 116.56V119.12C25.84 120.933 26.64 121.84 28.24 121.84C28.88 121.84 29.68 121.76 30.64 121.6C31.8133 121.387 32.8 121.28 33.6 121.28C34.9333 121.28 36 121.76 36.8 122.72C37.6 123.68 38 124.96 38 126.56C38 128.32 37.4667 129.733 36.4 130.8C35.3333 131.867 33.9467 132.4 32.24 132.4C30.7467 132.4 28.5333 132.267 25.6 132C22.6667 131.733 20.4533 131.6 18.96 131.6C16.6667 131.6 14.7467 131.68 13.2 131.84L9.28 132.24C8.21333 132.347 7.49333 132.4 7.12 132.4C5.41333 132.4 4.02667 131.867 2.96 130.8C1.94667 129.733 1.44 128.32 1.44 126.56C1.44 125.067 1.84 123.813 2.64 122.8C3.49333 121.787 4.53333 121.28 5.76 121.28C6.24 121.28 6.90667 121.387 7.76 121.6C8.61333 121.76 9.22667 121.84 9.6 121.84C11.04 121.84 11.76 120.027 11.76 116.4V94.24C11.76 92.5333 11.7067 91.44 11.6 90.96C11.3333 89.5733 10.6667 88.88 9.6 88.88C9.17333 88.88 8.53333 88.9867 7.68 89.2C6.88 89.36 6.24 89.44 5.76 89.44C4.53333 89.44 3.49333 88.9333 2.64 87.92C1.84 86.9067 1.44 85.6533 1.44 84.16C1.44 82.4 1.97333 80.9867 3.04 79.92C4.10667 78.8 5.49333 78.24 7.2 78.24C7.25333 78.24 7.33333 78.24 7.44 78.24C7.54667 78.2933 7.65333 78.32 7.76 78.32C9.04 78.32 10.9867 78.4533 13.6 78.72C16.2133 78.9867 18.1867 79.12 19.52 79.12C22.08 79.12 24.88 79.0133 27.92 78.8C31.76 78.5333 33.9467 78.4 34.48 78.4C40.2933 78.4 44.9867 80.0533 48.56 83.36C52.1867 86.6133 54 90.9067 54 96.24C54 101.787 52.1333 106.187 48.4 109.44C44.72 112.693 39.68 114.32 33.28 114.32C32.7467 114.32 31.7333 114.293 30.24 114.24L28 114.16ZM25.84 100.64C25.84 102.133 25.9733 103.067 26.24 103.44C26.5067 103.76 27.2267 103.947 28.4 104L29.68 104.08C35.9733 104.453 39.12 101.973 39.12 96.64C39.12 91.52 36.2933 88.96 30.64 88.96C29.2533 88.96 28.2933 89.04 27.76 89.2C26.8 89.4667 26.2133 90.1067 26 91.12C25.8933 91.6533 25.84 92.4533 25.84 93.52V100.64ZM92.6131 133.36C88.2398 133.36 85.3065 131.6 83.8131 128.08C80.0798 131.6 75.6531 133.36 70.5331 133.36C66.3198 133.36 62.9598 132.267 60.4531 130.08C57.9465 127.84 56.6931 124.88 56.6931 121.2C56.6931 115.6 59.1198 111.973 63.9731 110.32C66.0531 109.627 68.4531 109.04 71.1731 108.56C74.9598 107.92 77.5198 107.2 78.8531 106.4C80.2398 105.547 80.9331 104.267 80.9331 102.56C80.9331 101.333 80.3998 100.32 79.3331 99.52C78.3198 98.6667 77.0398 98.24 75.4931 98.24C73.7331 98.24 72.8531 98.8 72.8531 99.92C72.8531 100.293 72.8798 100.667 72.9331 101.04V101.36C72.9331 102.853 72.2931 104.107 71.0131 105.12C69.7865 106.133 68.2398 106.64 66.3731 106.64C64.2398 106.64 62.4798 106 61.0931 104.72C59.7065 103.44 59.0131 101.84 59.0131 99.92C59.0131 97.04 60.5331 94.7733 63.5731 93.12C66.6131 91.4667 70.7998 90.64 76.1331 90.64C81.8931 90.64 86.1865 91.52 89.0131 93.28C92.0531 95.2 93.5731 98.7733 93.5731 104V120.56C93.5731 122.267 93.9998 123.12 94.8531 123.12C95.2798 123.12 95.6798 123.093 96.0531 123.04C96.2131 122.987 96.3998 122.96 96.6131 122.96C97.8398 122.96 98.8798 123.387 99.7331 124.24C100.586 125.093 101.013 126.133 101.013 127.36C101.013 129.12 100.213 130.56 98.6131 131.68C97.0665 132.8 95.0665 133.36 92.6131 133.36ZM81.0131 116.24V114.48C80.6398 114.693 78.2931 115.36 73.9731 116.48C71.0398 117.227 69.5731 118.373 69.5731 119.92C69.5731 122.373 71.0131 123.6 73.8931 123.6C78.6398 123.6 81.0131 121.147 81.0131 116.24ZM118.694 94.64V97.04C122 92.7733 126.134 90.64 131.094 90.64C135.947 90.64 139.814 92.5333 142.694 96.32C145.574 100.053 147.014 105.093 147.014 111.44C147.014 118 145.547 123.2 142.614 127.04C139.68 130.88 135.734 132.8 130.774 132.8C128.8 132.8 127.014 132.427 125.414 131.68C124.4 131.2 122.854 130.187 120.774 128.64V134.8C120.774 136.453 121.414 137.28 122.694 137.28C123.227 137.28 123.84 137.2 124.534 137.04C125.494 136.933 126.187 136.88 126.614 136.88C129.067 136.88 130.294 138.267 130.294 141.04C130.294 144.24 128.64 145.84 125.334 145.84C124.374 145.84 122.907 145.733 120.934 145.52C118.48 145.253 116.054 145.12 113.654 145.12C112.64 145.12 110.374 145.333 106.854 145.76C106.214 145.813 105.734 145.84 105.414 145.84C104.027 145.84 102.88 145.333 101.974 144.32C101.067 143.36 100.614 142.107 100.614 140.56C100.614 137.573 101.92 136.08 104.534 136.08C104.96 136.08 105.36 136.16 105.734 136.32C106.694 136.533 107.147 136.64 107.094 136.64C108.054 136.64 108.534 135.12 108.534 132.08V105.6C108.534 102.56 108.08 101.04 107.174 101.04C107.014 101.04 106.534 101.173 105.734 101.44C105.2 101.547 104.774 101.6 104.454 101.6C101.894 101.6 100.614 100.107 100.614 97.12C100.614 95.5733 101.04 94.2933 101.894 93.28C102.747 92.2667 103.84 91.76 105.174 91.76H105.734L108.534 92.16C108.907 92.2667 109.68 92.32 110.854 92.32C112.4 92.32 113.84 92.2133 115.174 92C115.867 91.8933 116.374 91.84 116.694 91.84C118.027 91.84 118.694 92.7733 118.694 94.64ZM127.574 100.8C125.494 100.8 123.867 101.76 122.694 103.68C121.52 105.6 120.934 108.267 120.934 111.68C120.934 115.04 121.52 117.707 122.694 119.68C123.867 121.653 125.44 122.64 127.414 122.64C129.44 122.64 131.067 121.653 132.294 119.68C133.52 117.707 134.134 115.04 134.134 111.68C134.134 108.373 133.52 105.733 132.294 103.76C131.12 101.787 129.547 100.8 127.574 100.8ZM190.341 108.56C190.341 110.8 190.047 112.293 189.461 113.04C188.927 113.787 187.834 114.16 186.181 114.16H166.661C165.701 114.16 165.087 114.267 164.821 114.48C164.607 114.64 164.501 115.093 164.501 115.84C164.501 118.08 165.221 119.947 166.661 121.44C168.101 122.933 169.914 123.68 172.101 123.68C174.341 123.68 176.634 122.453 178.981 120C180.581 118.293 182.341 117.44 184.261 117.44C185.861 117.44 187.141 117.893 188.101 118.8C189.114 119.707 189.621 120.853 189.621 122.24C189.621 125.333 187.914 127.973 184.501 130.16C181.141 132.293 177.034 133.36 172.181 133.36C165.834 133.36 160.767 131.44 156.981 127.6C153.194 123.76 151.301 118.64 151.301 112.24C151.301 105.787 153.167 100.587 156.901 96.64C160.687 92.64 165.621 90.64 171.701 90.64C177.354 90.64 181.861 92.2667 185.221 95.52C188.634 98.7733 190.341 103.12 190.341 108.56ZM164.901 104.56C164.901 104.88 164.981 105.147 165.141 105.36C165.301 105.573 165.861 105.68 166.821 105.68H175.781C176.581 105.68 177.061 105.6 177.221 105.44C177.434 105.227 177.541 104.88 177.541 104.4C177.541 103.013 176.927 101.813 175.701 100.8C174.474 99.7333 173.034 99.2 171.381 99.2C169.247 99.2 167.514 100.027 166.181 101.68C165.327 102.747 164.901 103.707 164.901 104.56ZM211.293 78.16C212.786 78.16 213.533 79.1467 213.533 81.12V118.96C213.533 121.627 214.066 122.96 215.133 122.96C215.559 122.96 215.933 122.907 216.253 122.8C216.573 122.693 216.999 122.64 217.533 122.64C219.879 122.64 221.053 124.027 221.053 126.8C221.053 130.48 219.453 132.32 216.253 132.32C216.199 132.32 214.173 132.16 210.173 131.84C208.946 131.733 207.639 131.68 206.253 131.68C205.079 131.68 203.826 131.76 202.493 131.92C200.253 132.187 198.839 132.32 198.253 132.32C196.813 132.32 195.639 131.84 194.733 130.88C193.826 129.867 193.373 128.56 193.373 126.96C193.373 123.973 194.679 122.48 197.293 122.48C197.613 122.48 198.039 122.587 198.573 122.8C199.159 122.96 199.613 123.04 199.933 123.04C200.839 123.04 201.293 121.547 201.293 118.56V91.92C201.293 88.9333 200.839 87.44 199.933 87.44C199.559 87.44 199.079 87.5467 198.493 87.76C198.173 87.8667 197.746 87.92 197.213 87.92C194.653 87.92 193.373 86.4533 193.373 83.52C193.373 81.8667 193.826 80.56 194.733 79.6C195.639 78.64 196.866 78.16 198.413 78.16C198.839 78.16 199.746 78.24 201.133 78.4C202.946 78.6133 204.306 78.72 205.213 78.72C206.439 78.72 207.506 78.6133 208.413 78.4C209.639 78.24 210.599 78.16 211.293 78.16ZM18 191.84C19.8133 191.84 20.72 190.187 20.72 186.88V163.84C20.72 160.267 19.4133 158.48 16.8 158.48C14.1867 158.48 12.88 159.387 12.88 161.2C12.88 161.733 12.96 162.56 13.12 163.68C13.3333 164.747 13.44 165.547 13.44 166.08C13.44 170.827 11.44 173.2 7.44 173.2C5.57333 173.2 4.10667 172.613 3.04 171.44C1.97333 170.213 1.44 168.587 1.44 166.56C1.44 165.867 1.54667 164.613 1.76 162.8C1.92 161.413 2 160.133 2 158.96C2 158.32 1.92 157.013 1.76 155.04C1.65333 153.707 1.6 152.64 1.6 151.84C1.6 149.493 2.77333 148.32 5.12 148.32C6.34667 148.32 7.89333 148.4 9.76 148.56C14.0267 148.933 20 149.12 27.68 149.12C35.4133 149.12 41.4133 148.933 45.68 148.56C47.5467 148.4 49.0667 148.32 50.24 148.32C52.64 148.32 53.84 149.493 53.84 151.84C53.84 152.64 53.76 153.84 53.6 155.44C53.4933 156.987 53.44 158.16 53.44 158.96C53.44 159.813 53.52 161.093 53.68 162.8C53.8933 165.04 54 166.32 54 166.64C54 168.667 53.44 170.267 52.32 171.44C51.2533 172.613 49.8133 173.2 48 173.2C44 173.2 42 170.907 42 166.32C42 165.68 42.08 164.827 42.24 163.76C42.4 162.693 42.48 161.893 42.48 161.36C42.48 159.44 41.3067 158.48 38.96 158.48C37.4133 158.48 36.32 158.88 35.68 159.68C35.04 160.48 34.72 161.867 34.72 163.84V186.88C34.72 190.187 35.6267 191.84 37.44 191.84C38.0267 191.84 38.88 191.76 40 191.6C41.1733 191.387 42.0533 191.28 42.64 191.28C45.84 191.28 47.44 192.88 47.44 196.08C47.44 200.293 45.44 202.4 41.44 202.4C39.8933 202.4 38.0533 202.293 35.92 202.08C32.72 201.76 29.9733 201.6 27.68 201.6C25.3333 201.6 22.5867 201.76 19.44 202.08C17.36 202.293 15.52 202.4 13.92 202.4C9.92 202.4 7.92 200.453 7.92 196.56C7.92 193.04 9.54667 191.28 12.8 191.28C13.3867 191.28 14.24 191.387 15.36 191.6C16.5333 191.76 17.4133 191.84 18 191.84ZM74.6706 161.76C76.164 161.76 76.9106 162.8 76.9106 164.88V188.96C76.9106 191.68 77.4173 193.04 78.4306 193.04C78.644 193.04 79.0173 192.987 79.5506 192.88C80.1373 192.72 80.6173 192.64 80.9906 192.64C83.2306 192.64 84.3506 194.027 84.3506 196.8C84.3506 200.48 82.7773 202.32 79.6306 202.32C79.0973 202.32 77.604 202.187 75.1506 201.92C73.6573 201.76 71.9506 201.68 70.0306 201.68C69.0706 201.68 67.6573 201.787 65.7906 202C63.924 202.213 62.5373 202.32 61.6306 202.32C60.1906 202.32 59.0173 201.84 58.1106 200.88C57.204 199.867 56.7506 198.587 56.7506 197.04C56.7506 194 58.0306 192.48 60.5906 192.48C60.5906 192.48 61.284 192.64 62.6706 192.96C62.884 193.013 63.0706 193.04 63.2306 193.04C64.1906 193.04 64.6706 191.547 64.6706 188.56V175.6C64.6706 172.56 64.2173 171.04 63.3106 171.04C63.1506 171.04 62.6706 171.173 61.8706 171.44C61.3373 171.547 60.9106 171.6 60.5906 171.6C58.0306 171.6 56.7506 170.107 56.7506 167.12C56.7506 165.52 57.204 164.24 58.1106 163.28C59.0173 162.267 60.2173 161.76 61.7106 161.76C62.2973 161.76 63.1506 161.84 64.2706 162C66.1373 162.267 67.6306 162.4 68.7506 162.4C69.6573 162.4 70.8306 162.293 72.2706 162.08C73.7106 161.867 74.5106 161.76 74.6706 161.76ZM70.1106 158.72C68.1373 158.72 66.4306 158 64.9906 156.56C63.5506 155.12 62.8306 153.413 62.8306 151.44C62.8306 149.413 63.524 147.707 64.9106 146.32C66.3506 144.88 68.084 144.16 70.1106 144.16C72.1373 144.16 73.844 144.88 75.2306 146.32C76.6706 147.707 77.3906 149.413 77.3906 151.44C77.3906 153.467 76.6706 155.2 75.2306 156.64C73.844 158.027 72.1373 158.72 70.1106 158.72ZM88.9756 208.16C88.9756 208.907 88.789 209.6 88.4156 210.24C88.8423 210.347 89.3223 210.4 89.8556 210.4C91.669 210.4 92.9223 209.6 93.6156 208C94.3623 206.4 94.7356 203.547 94.7356 199.44V175.6C94.7356 172.56 94.2556 171.04 93.2956 171.04C92.9756 171.04 92.4423 171.147 91.6956 171.36C91.0023 171.52 90.5223 171.6 90.2556 171.6C87.9623 171.6 86.8156 170.107 86.8156 167.12C86.8156 163.547 88.389 161.76 91.5356 161.76C92.3356 161.76 93.4823 161.867 94.9756 162.08C96.5223 162.293 97.6956 162.4 98.4956 162.4C99.2956 162.4 100.496 162.293 102.096 162.08C103.696 161.867 104.576 161.76 104.736 161.76C106.229 161.76 106.976 162.8 106.976 164.88V201.52C106.976 204.507 106.709 206.827 106.176 208.48C105.642 210.187 104.629 211.84 103.136 213.44C99.8823 216.96 95.4023 218.72 89.6956 218.72C85.749 218.72 82.5223 217.893 80.0156 216.24C77.509 214.64 76.2556 212.533 76.2556 209.92C76.2556 208.053 76.9223 206.48 78.2556 205.2C79.589 203.92 81.2423 203.28 83.2156 203.28C84.869 203.28 86.229 203.733 87.2956 204.64C88.4156 205.6 88.9756 206.773 88.9756 208.16ZM99.9356 158.72C97.909 158.72 96.1756 158.027 94.7356 156.64C93.2956 155.2 92.5756 153.467 92.5756 151.44C92.5756 149.413 93.2956 147.707 94.7356 146.32C96.1756 144.88 97.909 144.16 99.9356 144.16C101.962 144.16 103.669 144.88 105.056 146.32C106.496 147.707 107.216 149.413 107.216 151.44C107.216 153.413 106.496 155.12 105.056 156.56C103.669 158 101.962 158.72 99.9356 158.72ZM153.466 178.56C153.466 180.8 153.172 182.293 152.586 183.04C152.052 183.787 150.959 184.16 149.306 184.16H129.786C128.826 184.16 128.212 184.267 127.946 184.48C127.732 184.64 127.626 185.093 127.626 185.84C127.626 188.08 128.346 189.947 129.786 191.44C131.226 192.933 133.039 193.68 135.226 193.68C137.466 193.68 139.759 192.453 142.106 190C143.706 188.293 145.466 187.44 147.386 187.44C148.986 187.44 150.266 187.893 151.226 188.8C152.239 189.707 152.746 190.853 152.746 192.24C152.746 195.333 151.039 197.973 147.626 200.16C144.266 202.293 140.159 203.36 135.306 203.36C128.959 203.36 123.892 201.44 120.106 197.6C116.319 193.76 114.426 188.64 114.426 182.24C114.426 175.787 116.292 170.587 120.026 166.64C123.812 162.64 128.746 160.64 134.826 160.64C140.479 160.64 144.986 162.267 148.346 165.52C151.759 168.773 153.466 173.12 153.466 178.56ZM128.026 174.56C128.026 174.88 128.106 175.147 128.266 175.36C128.426 175.573 128.986 175.68 129.946 175.68H138.906C139.706 175.68 140.186 175.6 140.346 175.44C140.559 175.227 140.666 174.88 140.666 174.4C140.666 173.013 140.052 171.813 138.826 170.8C137.599 169.733 136.159 169.2 134.506 169.2C132.372 169.2 130.639 170.027 129.306 171.68C128.452 172.747 128.026 173.707 128.026 174.56ZM174.658 164.24V171.04C175.404 168.32 176.284 166.32 177.298 165.04C179.644 162.107 182.924 160.64 187.138 160.64C190.071 160.64 192.524 161.6 194.498 163.52C196.524 165.387 197.538 167.707 197.538 170.48C197.538 172.667 196.898 174.48 195.618 175.92C194.338 177.307 192.711 178 190.738 178C189.244 178 187.964 177.52 186.898 176.56C185.884 175.6 185.378 174.427 185.378 173.04C185.378 172.293 185.724 171.253 186.418 169.92H185.938C182.364 169.92 179.964 171.813 178.738 175.6C177.778 178.64 177.298 182.133 177.298 186.08V189.12C177.298 191.04 177.458 192.267 177.778 192.8C177.991 193.12 178.364 193.28 178.898 193.28C179.378 193.28 180.044 193.173 180.898 192.96C181.751 192.747 182.391 192.64 182.818 192.64C183.991 192.64 184.978 193.067 185.778 193.92C186.631 194.72 187.058 195.707 187.058 196.88C187.058 198.427 186.524 199.733 185.458 200.8C184.444 201.813 183.191 202.32 181.698 202.32C180.898 202.32 179.404 202.187 177.218 201.92C175.884 201.76 174.204 201.68 172.178 201.68C170.151 201.68 168.364 201.76 166.818 201.92C164.258 202.187 162.684 202.32 162.098 202.32C158.791 202.32 157.138 200.533 157.138 196.96C157.138 193.973 158.418 192.48 160.978 192.48C161.404 192.48 161.884 192.587 162.418 192.8C162.951 192.96 163.351 193.04 163.618 193.04C164.524 193.04 164.978 191.547 164.978 188.56V175.6C164.978 172.56 164.524 171.04 163.618 171.04C163.404 171.04 162.978 171.147 162.338 171.36C161.751 171.52 161.298 171.6 160.978 171.6C158.418 171.6 157.138 170.133 157.138 167.2C157.138 165.6 157.564 164.293 158.418 163.28C159.271 162.267 160.364 161.76 161.698 161.76C162.231 161.76 162.978 161.867 163.938 162.08C164.898 162.293 165.804 162.4 166.658 162.4C167.298 162.4 168.231 162.293 169.458 162.08C170.684 161.867 171.591 161.76 172.178 161.76C173.831 161.76 174.658 162.587 174.658 164.24ZM234.879 203.36C230.505 203.36 227.572 201.6 226.079 198.08C222.345 201.6 217.919 203.36 212.799 203.36C208.585 203.36 205.225 202.267 202.719 200.08C200.212 197.84 198.959 194.88 198.959 191.2C198.959 185.6 201.385 181.973 206.239 180.32C208.319 179.627 210.719 179.04 213.439 178.56C217.225 177.92 219.785 177.2 221.119 176.4C222.505 175.547 223.199 174.267 223.199 172.56C223.199 171.333 222.665 170.32 221.599 169.52C220.585 168.667 219.305 168.24 217.759 168.24C215.999 168.24 215.119 168.8 215.119 169.92C215.119 170.293 215.145 170.667 215.199 171.04V171.36C215.199 172.853 214.559 174.107 213.279 175.12C212.052 176.133 210.505 176.64 208.639 176.64C206.505 176.64 204.745 176 203.359 174.72C201.972 173.44 201.279 171.84 201.279 169.92C201.279 167.04 202.799 164.773 205.839 163.12C208.879 161.467 213.065 160.64 218.399 160.64C224.159 160.64 228.452 161.52 231.279 163.28C234.319 165.2 235.839 168.773 235.839 174V190.56C235.839 192.267 236.265 193.12 237.119 193.12C237.545 193.12 237.945 193.093 238.319 193.04C238.479 192.987 238.665 192.96 238.879 192.96C240.105 192.96 241.145 193.387 241.999 194.24C242.852 195.093 243.279 196.133 243.279 197.36C243.279 199.12 242.479 200.56 240.879 201.68C239.332 202.8 237.332 203.36 234.879 203.36ZM223.279 186.24V184.48C222.905 184.693 220.559 185.36 216.239 186.48C213.305 187.227 211.839 188.373 211.839 189.92C211.839 192.373 213.279 193.6 216.159 193.6C220.905 193.6 223.279 191.147 223.279 186.24Z" fill="#009048"/>
<path d="M262.88 133.36C256.267 133.36 251.147 131.493 247.52 127.76C243.947 124.027 242.16 118.773 242.16 112C242.16 105.28 243.947 100.053 247.52 96.32C251.093 92.5333 256.107 90.64 262.56 90.64C268.907 90.64 273.893 92.5067 277.52 96.24C281.2 99.9733 283.04 105.093 283.04 111.6C283.04 118.427 281.253 123.76 277.68 127.6C274.16 131.44 269.227 133.36 262.88 133.36ZM252.08 83.52C252.08 82.4533 252.56 81.52 253.52 80.72C253.893 80.4533 254.853 79.8933 256.4 79.04L263.84 74.96C265.387 74.1067 266.853 73.68 268.24 73.68C269.52 73.68 270.64 74.24 271.6 75.36C272.613 76.4267 273.12 77.7067 273.12 79.2C273.12 81.12 271.36 82.7733 267.84 84.16L260.64 86.96C258.453 87.8133 256.8 88.24 255.68 88.24C254.347 88.24 253.307 87.4133 252.56 85.76C252.24 85.0667 252.08 84.32 252.08 83.52ZM262.56 100.48C260.213 100.48 258.347 101.52 256.96 103.6C255.627 105.627 254.96 108.427 254.96 112C254.96 115.627 255.627 118.453 256.96 120.48C258.347 122.507 260.267 123.52 262.72 123.52C267.68 123.52 270.16 119.68 270.16 112C270.16 104.32 267.627 100.48 262.56 100.48Z" fill="#91CCAF"/>
</svg>
